<svg width="987" height="318" viewBox="0 0 987 318" fill="none" xmlns="http://www.w3.org/2000/svg">
<mask id="mask0_98_159" style="mask-type:luminance" maskUnits="userSpaceOnUse" x="55" y="59" width="196" height="200">
<path d="M171.617 59.7827H134.167C90.8307 59.7827 55.7 94.8219 55.7 138.045V180.734C55.7 223.957 90.8307 258.996 134.167 258.996H171.617C214.953 258.996 250.083 223.957 250.083 180.734V138.045C250.083 94.8219 214.953 59.7827 171.617 59.7827Z" fill="white"/>
</mask>
<g mask="url(#mask0_98_159)">
<path d="M259.892 133.154V128.707H255.433H182.985V54.4467V50H178.527H127.256H122.798V54.4467V128.707H50.35H45.8917V133.154V185.625V190.072H50.35H122.798V264.332V268.779H127.256H178.527H182.985V264.332V190.072H255.433H259.892V185.625V133.154Z" fill="#496CE2" stroke="#496CE2" stroke-width="5"/>
<path d="M244.819 174.554C244.885 174.513 244.937 174.498 245.009 174.478" stroke="#496CE2" stroke-linecap="round"/>
</g>
<path d="M152.892 261.664C209.524 261.664 255.433 215.874 255.433 159.389C255.433 102.905 209.524 57.1147 152.892 57.1147C96.2594 57.1147 50.35 102.905 50.35 159.389C50.35 215.874 96.2594 261.664 152.892 261.664Z" stroke="#496CE2" stroke-width="4" stroke-linecap="round" stroke-linejoin="round"/>
<g filter="url(#filter0_d_98_159)">
<path d="M116.981 192.428L66.4 75.791L185.309 124.535L236.776 242.043L116.981 192.428Z" fill="#FDFDFD"/>
<path d="M66.4 75.791L116.981 192.428M66.4 75.791L185.309 124.535M66.4 75.791L150.701 157.611M116.981 192.428L236.776 242.043M116.981 192.428L150.701 157.611M185.309 124.535L236.776 242.043M185.309 124.535L150.701 157.611M150.701 157.611L236.776 242.043" stroke="#496CE2" stroke-width="2"/>
</g>
<path d="M166.276 157.599C166.276 149.615 160.261 143.452 151.868 143.452C143.475 143.452 136.901 149.895 136.901 157.599C136.901 165.303 143.056 172.587 151.588 172.447C160.121 172.307 166.276 165.583 166.276 157.599Z" fill="#496CE2"/>
<path d="M247.123 176.526C247.588 176.526 247.952 176.026 248.197 175.698C248.302 175.555 248.411 175.422 248.477 175.255C248.482 175.244 248.551 175.072 248.566 175.083C248.723 175.211 248.682 175.732 248.708 175.922C248.78 176.465 249.136 175.401 249.19 175.652C249.243 175.908 249.19 176.213 249.152 176.468C249.099 176.817 249.135 177.202 249.028 177.541C248.967 177.738 248.935 177.994 248.935 178.199C248.935 178.372 248.892 178.523 248.867 178.693C248.819 179.03 248.81 179.394 248.783 179.734C248.724 180.488 248.676 181.235 248.592 181.985C248.523 182.61 248.482 183.252 248.377 183.875C248.291 184.379 248.216 184.935 248.216 185.448C248.216 185.897 248.098 186.335 248.172 186.782C248.204 186.991 248.077 187.512 248.225 187.66C248.368 187.802 248.425 188.025 248.478 188.217C248.498 188.281 248.557 188.259 248.557 188.328C248.557 188.352 248.589 188.471 248.603 188.489C248.675 188.578 248.785 188.608 248.878 188.535C248.919 188.502 248.981 188.511 249.012 188.476C249.094 188.381 249.144 188.274 249.168 188.15C249.226 187.874 249.236 187.614 249.236 187.332C249.236 186.951 249.32 186.52 249.454 186.163C249.584 185.815 249.655 185.469 249.746 185.111C249.821 184.81 249.893 184.472 249.917 184.166C249.98 183.413 250.449 182.751 250.745 182.081C250.986 181.538 251.116 180.941 251.123 180.349C251.128 179.917 251.166 179.46 251.103 179.032C251.059 178.721 251.068 178.353 250.925 178.07C250.82 177.858 250.775 178.098 250.738 178.25C250.488 179.262 250.353 180.346 250.333 181.389C250.329 181.585 250.287 182.158 250.36 181.976C250.408 181.855 250.369 181.643 250.369 181.518C250.369 180.811 250.385 180.125 250.208 179.433C250.205 179.414 249.996 178.716 249.982 178.726C249.894 178.788 249.889 179.186 249.875 179.272C249.786 179.854 249.662 180.428 249.561 181.008C249.481 181.468 249.42 181.931 249.336 182.39C249.325 182.453 249.292 182.666 249.336 182.459C249.518 181.623 249.575 180.769 249.575 179.914" stroke="#496CE2" stroke-linecap="round"/>
<path d="M133.9 258.027C134.98 258.283 136.011 258.565 137.123 258.63C138.163 258.688 139.205 258.683 140.247 258.676C141.272 258.669 142.295 258.599 143.32 258.599C144.476 258.599 145.63 258.674 146.785 258.706C148.353 258.749 149.911 258.672 151.476 258.64C152.857 258.612 154.233 258.45 155.614 258.393C156.443 258.359 157.268 258.34 158.095 258.277C160.101 258.126 162.105 258.011 164.114 257.92C165.47 257.859 166.831 257.934 168.188 257.882C168.984 257.85 169.802 257.818 170.584 257.662C170.81 257.616 170.995 257.537 171.229 257.527C171.303 257.525 172.075 257.432 172.093 257.477C172.197 257.735 170.598 257.778 170.589 257.778C168.443 257.998 166.302 258.372 164.193 258.822C163.301 259.014 162.404 259.12 161.509 259.288C160.534 259.469 159.526 259.428 158.538 259.458C157.223 259.501 155.912 259.554 154.596 259.554C153.808 259.554 153.02 259.554 152.232 259.554C151.536 259.554 150.845 259.65 150.152 259.698C149.063 259.777 147.938 259.716 146.845 259.707C146.481 259.704 146.101 259.686 145.738 259.661C145.362 259.634 144.975 259.663 144.602 259.611C144.13 259.549 143.626 259.629 143.161 259.533C142.862 259.473 142.55 259.464 142.256 259.384C142.057 259.329 142.298 259.135 142.367 259.058" stroke="#496CE2" stroke-linecap="round"/>
<path d="M56.1563 132.639C55.8964 133.654 55.5366 134.692 55.5162 135.748C55.5124 135.947 55.4769 136.168 55.4362 136.363C55.2909 137.059 55.1124 137.749 54.9413 138.444C54.6992 139.427 54.6591 140.447 54.476 141.441C54.3303 142.233 54.1526 143.008 54.0523 143.808C53.9525 144.605 53.833 145.397 53.6907 146.188C53.5903 146.747 53.4582 147.299 53.3588 147.858C53.2381 148.537 53.2179 149.233 53.1454 149.918C53.0654 150.674 52.9507 151.426 52.8728 152.182C52.8101 152.791 52.7897 153.415 52.6861 154.018C52.5319 154.915 52.2643 155.817 52.2149 156.728C52.1705 157.548 52.0402 158.339 51.9126 159.152C51.7417 160.241 51.7221 161.319 51.6459 162.415C51.5869 163.264 51.4397 164.145 51.5274 164.998C51.6047 165.75 51.6071 166.513 51.6637 167.268C51.789 168.94 52.2518 170.564 52.3927 172.231C52.5012 173.514 52.5213 174.797 52.7187 176.071C52.7963 176.571 52.7537 177.09 52.8195 177.596C52.8714 177.996 52.9502 178.416 52.9558 178.819C52.962 179.269 53.0952 179.698 53.1691 180.141C53.2381 180.553 53.4583 180.969 53.4892 181.385C53.5107 181.675 53.7543 182.025 53.8922 182.275C54.1025 182.656 54.2575 183.04 54.4227 183.442C54.6046 183.886 54.8779 184.307 55.0361 184.755C55.1768 185.152 55.4564 185.417 55.7177 185.736C55.9619 186.033 55.8885 185.003 55.8629 184.855C55.6692 183.734 55.7296 182.543 55.7296 181.409C55.7296 180.961 55.7404 180.512 55.7266 180.064C55.7079 179.458 55.6015 178.866 55.6348 178.258C55.6752 177.519 55.8402 176.805 55.9163 176.071C55.9968 175.294 56.0496 174.533 56.0496 173.753C56.0496 172.985 56.0496 172.216 56.0496 171.448C56.0496 171.172 56.0496 170.896 56.0496 170.62C56.0496 170.587 56.0525 170.486 56.0496 170.52C56.0286 170.765 55.996 171.008 55.9667 171.253C55.6565 173.837 55.294 176.453 55.1991 179.056C55.1842 179.466 55.1275 179.845 55.0658 180.25C55.0343 180.457 55.0487 180.84 54.9295 181.018C54.8578 181.126 54.9016 180.762 54.888 180.634C54.8394 180.176 54.7282 179.73 54.642 179.278C54.3945 177.979 54.1993 176.643 54.0345 175.332C53.7356 172.954 53.5794 170.517 53.5455 168.12C53.5228 166.511 53.5818 161.689 53.6463 163.296C53.8233 167.71 52.8755 172.097 52.7543 176.502C52.7276 177.473 52.751 178.412 52.9262 179.36C53.0537 180.051 53.2319 180.566 53.6611 181.131C54.1707 181.802 54.7629 182.423 55.291 183.082C55.3526 183.159 55.5651 183.326 55.5696 183.164C55.5986 182.122 55.3316 181.106 55.0895 180.099C54.568 177.932 54.0957 175.741 53.7796 173.535C53.533 171.813 53.2758 170.055 53.2758 168.312C53.2758 167.321 53.2758 166.33 53.2758 165.338C53.2758 163.627 53.4992 161.973 53.6789 160.275C54.1214 156.094 54.6399 151.933 55.2495 147.772C55.2953 147.46 55.5097 146.539 55.4095 146.838C55.3497 147.017 55.3197 147.229 55.2791 147.412C54.9925 148.698 54.7777 150.002 54.5442 151.298C54.0087 154.273 53.3224 157.239 52.9084 160.234C52.7806 161.158 52.6933 162.086 52.5853 163.012C52.5411 163.392 52.5183 163.823 52.4105 164.194C52.3823 164.292 52.3207 164.128 52.3157 164.112C52.212 163.77 52.1716 163.398 52.1141 163.047C51.9189 161.855 51.9359 160.569 52.0638 159.371C52.3231 156.939 52.8723 154.518 53.347 152.123C53.822 149.726 54.3239 147.323 54.6953 144.908C54.9158 143.474 55.0892 142.029 55.3799 140.608C55.486 140.089 55.6108 139.538 55.6229 139.005C55.6322 138.597 55.551 139.82 55.4836 140.223C55.1483 142.23 54.8586 144.235 54.6983 146.265C54.4997 148.78 54.5894 151.324 54.8494 153.832C54.927 154.579 55.0656 155.346 55.0895 156.096C55.1127 156.825 54.9635 154.642 54.9028 153.914C54.6704 151.133 54.3723 148.34 54.2538 145.552C54.1968 144.213 54.178 142.834 54.396 141.506C54.4974 140.889 54.616 142.099 54.6331 142.215C54.8928 143.992 54.9516 145.795 55.0895 147.583C55.171 148.64 55.1967 149.7 55.2732 150.757C55.3036 151.178 55.3029 151.03 55.3029 150.746C55.3029 149.903 55.2248 149.068 55.1784 148.227C55.1091 146.971 55.0871 145.648 55.3029 144.403C55.3108 144.357 55.3872 143.87 55.4362 144.222C55.6826 145.997 55.6598 147.864 55.7296 149.646C55.9665 155.694 56.02 161.744 56.0911 167.794C56.0985 168.417 56.0455 169.082 56.1148 169.704C56.1224 169.772 56.157 169.572 56.1593 169.503C56.1985 168.312 56.2501 167.125 56.2749 165.932C56.2872 165.34 56.295 164.745 56.3282 164.153C56.3673 163.456 56.3065 164.714 56.3045 164.735C56.0139 167.843 55.7052 170.944 55.5577 174.064C55.53 174.649 55.5162 175.234 55.5162 175.819C55.5162 176.118 55.5685 175.391 55.5696 175.379C55.7185 173.661 55.4708 171.958 55.2584 170.257C54.9756 167.991 54.9237 165.683 54.888 163.402C54.8651 161.944 54.8761 160.486 54.8761 159.028C54.8761 158.76 54.8761 158.815 54.8761 159.069C54.8761 160.209 54.8433 161.342 54.7902 162.48C54.6336 165.834 54.6094 169.185 54.6094 172.541C54.6094 172.679 54.6094 172.817 54.6094 172.955C54.6094 173.011 54.6094 173.75 54.6094 172.861C54.6094 172.107 54.5883 171.362 54.5116 170.611C54.1558 167.129 53.6643 163.668 53.5248 160.166C53.4527 158.357 53.3944 156.541 53.3944 154.73C53.3944 153.668 53.4584 152.612 53.6552 151.567C53.7104 151.274 53.7015 151.324 53.7381 151.591C53.9104 152.845 54.0045 154.099 54.0701 155.363C54.2332 158.508 54.5298 161.638 54.9354 164.762C54.9995 165.256 54.9793 165.033 54.9828 164.786C54.9905 164.241 55.0433 163.698 55.0539 163.154C55.0877 161.416 55.034 159.7 55.1695 157.964C55.2003 157.569 55.2002 157.123 55.3503 156.749C55.4185 156.579 55.4095 156.757 55.4095 156.817C55.4095 157.159 55.4539 157.534 55.4036 157.872C55.3448 158.268 55.1472 157.774 55.1132 157.665C54.7303 156.443 54.6422 155.117 54.5383 153.849C54.5076 153.475 54.4811 153.09 54.5146 152.714C54.5324 152.514 54.5526 152.615 54.5857 152.723C54.6225 152.844 54.6334 152.963 54.7694 152.963" stroke="#496CE2" stroke-linecap="round"/>
<path d="M248.557 163.05C248.507 162.805 248.519 163.549 248.526 163.798C248.576 165.364 248.846 166.923 249.038 168.475C249.327 170.801 249.605 173.129 249.898 175.455C249.978 176.089 250.041 176.749 250.217 177.367C250.235 177.43 250.217 177.234 250.217 177.168C250.217 176.826 250.214 176.483 250.201 176.141C250.13 174.248 249.9 172.374 249.605 170.503C249.3 168.569 248.892 166.653 248.591 164.719C248.453 163.844 248.402 162.939 248.225 162.071C248.2 161.952 248.2 162.313 248.193 162.435C248.156 163.181 248.122 163.927 248.086 164.673C247.949 167.568 247.861 170.466 247.781 173.364C247.753 174.391 247.726 175.419 247.726 176.447C247.726 176.679 247.726 175.981 247.719 175.748C247.674 174.527 247.731 173.348 247.924 172.139C247.961 171.905 248.004 171.672 248.059 171.442C248.084 171.341 248.098 171.28 248.104 171.415C248.154 172.968 248.266 174.519 248.364 176.07C248.386 176.414 248.391 176.771 248.452 177.112C248.464 177.178 248.484 177.364 248.518 177.304C248.562 177.22 248.557 176.983 248.566 176.903C248.598 176.591 248.63 176.28 248.646 175.968C248.667 175.587 248.666 175.205 248.678 174.824C248.683 174.674 248.641 174.236 248.753 174.098C248.765 174.083 248.799 174.1 248.808 174.117C248.878 174.263 248.983 174.804 248.997 174.878C249.152 175.674 249.279 176.476 249.418 177.275C249.523 177.882 249.627 178.49 249.748 179.094C249.777 179.237 249.802 179.497 249.875 179.638C249.905 179.694 249.934 179.524 249.944 179.462C249.989 179.204 250.007 178.939 250.03 178.678C250.226 176.585 250.087 174.468 250.527 172.398C250.572 172.188 250.627 171.98 250.683 171.773C250.684 171.765 250.724 171.581 250.738 171.716C250.811 172.488 250.77 173.279 250.822 174.054C250.891 175.133 250.979 176.272 251.294 177.313C251.453 177.831 251.515 176.807 251.521 176.739C251.642 175.295 251.542 173.834 251.417 172.394C251.267 170.682 251.119 168.971 251.064 167.253C251.041 166.524 251.048 165.795 251.048 165.066C251.048 165.028 251.048 164.99 251.048 164.953C251.048 164.947 251.048 164.964 251.048 164.97C251.048 165.431 251.027 165.891 251.004 166.352C250.92 167.971 250.859 169.583 250.859 171.204C250.859 171.694 250.859 172.184 250.859 172.674C250.859 172.796 250.875 173.161 250.857 173.04C250.697 171.999 250.699 170.909 250.615 169.859C250.449 167.749 250.413 165.634 250.495 163.518C250.611 160.598 251.169 157.723 251.423 154.814C251.469 154.281 251.218 155.865 251.114 156.391C250.782 158.079 250.429 159.764 250.053 161.444C250.001 161.678 249.948 161.914 249.885 162.146C249.871 162.203 249.873 162.029 249.869 161.971C249.819 161.051 249.739 160.134 249.705 159.214C249.639 157.423 249.584 155.632 249.575 153.84C249.575 153.575 249.593 152.784 249.573 153.047C249.552 153.343 249.539 153.64 249.522 153.936C249.423 155.453 249.365 156.971 249.329 158.491C249.313 159.122 249.268 159.778 249.311 160.41C249.336 160.768 249.452 159.707 249.5 159.352C249.632 158.37 249.727 157.369 249.761 156.378C249.762 156.313 249.762 156.247 249.764 156.182C249.764 156.164 249.764 156.109 249.764 156.127C249.764 156.15 249.766 156.172 249.764 156.194C249.748 156.595 249.693 156.99 249.636 157.386C249.391 159.141 249.144 160.895 248.963 162.659C248.912 163.16 248.906 163.688 248.83 164.187C248.787 164.46 248.821 163.635 248.821 163.359C248.821 162.261 248.819 161.163 248.778 160.065C248.746 159.152 248.685 158.235 248.614 157.324C248.603 157.205 248.639 156.887 248.557 156.972C248.469 157.064 248.432 157.575 248.419 157.644C248.284 158.443 248.181 159.234 248.145 160.044C248.129 160.431 248.115 160.819 248.141 161.205C248.141 161.205 248.179 161.671 248.216 161.389C248.601 158.562 248.782 155.685 248.963 152.84C248.983 152.538 248.999 152.236 249.008 151.934C249.008 151.9 249.008 151.866 249.01 151.832C249.012 151.771 249.01 151.955 249.01 152.016C248.983 153.655 248.785 155.291 248.678 156.926C248.573 158.533 248.462 160.15 248.482 161.761C248.489 162.433 248.53 163.097 248.633 163.761C248.664 163.946 248.705 164.4 248.821 164.597C248.856 164.659 248.869 164.461 248.878 164.39C248.906 164.135 248.919 163.878 248.951 163.623C249.019 163.068 249.065 162.444 249.217 161.906C249.268 161.726 249.358 162.255 249.397 162.437C249.586 163.284 249.805 164.132 249.946 164.988C250.057 165.653 250.124 166.333 250.14 167.006C250.148 167.334 250.148 167.24 250.114 166.971C249.734 163.84 249.655 160.681 249.693 157.529C249.7 157.032 249.711 156.534 249.764 156.04C249.778 155.914 249.773 155.559 249.837 155.667C249.878 155.734 249.869 155.901 249.878 155.973C249.914 156.278 249.948 156.584 249.976 156.891C250.121 158.503 250.217 160.104 250.486 161.703C250.65 162.684 250.791 163.698 251.043 164.662C251.082 164.81 251.114 164.562 251.114 164.555C251.171 164.231 251.201 163.899 251.244 163.573C251.442 162.069 251.647 160.57 251.909 159.076C252.12 157.867 252.38 156.667 252.614 155.462C252.641 155.322 252.705 154.901 252.708 155.044C252.716 155.38 252.685 155.725 252.658 156.058C252.528 157.656 252.289 159.246 252.113 160.839C252.033 161.558 251.933 163.727 251.954 163.004C251.974 162.279 252.109 161.553 252.188 160.833C252.327 159.567 252.489 158.308 252.699 157.052C252.769 156.641 252.819 156.203 252.935 155.801C252.944 155.77 252.935 155.867 252.935 155.899C252.935 156.284 252.935 156.668 252.935 157.052C252.935 158.704 252.844 160.386 253.001 162.033C253.058 162.622 253.14 163.225 253.299 163.796C253.309 163.834 253.402 164.167 253.454 163.928C253.514 163.655 253.516 163.356 253.547 163.079C253.607 162.538 253.682 161.999 253.757 161.46C253.907 160.386 254.076 159.315 254.228 158.242C254.235 158.194 254.24 158.146 254.247 158.098C254.249 158.077 254.249 158.139 254.247 158.16C254.23 158.413 254.201 158.661 254.158 158.911C253.935 160.267 253.695 161.616 253.52 162.981C253.452 163.509 253.384 164.037 253.338 164.568C253.325 164.708 253.275 165.126 253.315 164.99C253.466 164.462 253.452 163.815 253.498 163.271C253.534 162.862 253.561 162.451 253.597 162.042C253.6 162.017 253.605 161.941 253.605 161.966C253.605 162.119 253.582 162.271 253.568 162.422C253.454 163.554 253.331 164.669 253.317 165.808C253.306 166.629 253.226 167.512 253.352 168.328C253.359 168.377 253.413 168.511 253.416 168.462C253.457 168.028 253.399 167.562 253.363 167.132C253.227 165.552 253.004 163.976 252.733 162.414C252.644 161.901 252.553 161.385 252.436 160.877C252.421 160.812 252.407 160.745 252.386 160.682C252.355 160.599 252.336 160.649 252.323 160.703C252.084 161.704 252.131 162.813 252.104 163.832C252.075 165.003 252.02 166.21 252.188 167.374C252.195 167.423 252.291 168.148 252.348 167.793C252.436 167.244 252.491 166.693 252.557 166.141C252.6 165.781 252.666 165.429 252.746 165.076C252.771 164.964 252.737 164.814 252.826 164.74C252.88 164.694 252.912 164.857 252.924 164.926C252.996 165.306 253.035 165.693 253.078 166.078C253.295 168.035 253.463 169.999 253.63 171.961C253.655 172.248 253.689 172.549 253.689 172.841C253.689 174.05 253.67 170.423 253.595 169.217C253.568 168.778 253.55 168.334 253.5 167.897C253.5 167.894 253.484 167.617 253.418 167.766C253.315 168.005 253.277 168.295 253.22 168.546C253.09 169.108 252.944 169.667 252.805 170.227C252.578 171.133 252.384 172.047 252.336 172.981C252.318 173.311 252.423 173.04 252.462 172.885C252.712 171.915 252.675 170.887 252.917 169.918C253.008 169.555 252.91 170.666 252.88 171.039C252.812 171.872 252.732 172.716 252.808 173.552C252.815 173.621 252.828 173.942 252.912 174.006C253.013 174.084 252.979 173.758 252.997 173.632C253.117 172.807 253.172 171.975 253.295 171.152C253.427 170.268 252.997 172.916 252.951 173.807C252.926 174.307 253.013 175.802 252.926 175.309C252.762 174.371 252.594 173.431 252.446 172.49C252.209 170.989 252.093 169.483 252.07 167.964C252.063 167.378 252.134 165.626 252.043 166.206C251.908 167.082 251.824 167.973 251.71 168.853C251.587 169.814 251.501 170.78 251.501 171.75C251.501 171.764 251.514 172.047 251.54 171.865C251.605 171.438 251.626 171.005 251.692 170.578C251.765 170.088 251.82 169.594 251.895 169.104C251.909 169.002 251.92 168.843 251.992 168.771" stroke="#496CE2" stroke-linecap="round"/>
<path d="M249.01 150.929C248.972 150.313 248.872 149.709 248.864 149.09C248.824 146.604 248.979 144.132 249.158 141.654C249.213 140.895 249.247 140.135 249.295 139.376C249.299 139.305 249.308 138.532 249.407 139.014C249.712 140.493 249.543 142.139 249.317 143.611C249.252 144.025 249.22 144.442 249.161 144.856C249.151 144.919 249.161 144.727 249.161 144.663C249.158 144.057 249.152 143.45 249.131 142.844C249.037 140.167 248.689 137.497 248.485 134.825C248.452 134.385 248.411 133.945 248.405 133.504C248.405 133.426 248.416 133.345 248.384 133.272C248.33 133.146 248.275 132.993 248.255 132.858C248.188 132.421 248.255 132.011 248.255 131.58C248.255 131.34 248.159 130.89 248.368 130.76C248.418 130.729 248.393 130.676 248.462 130.676C248.537 130.676 248.614 130.676 248.689 130.676C248.732 130.676 248.796 130.637 248.781 130.584C248.769 130.545 248.646 130.563 248.614 130.563C248.35 130.563 247.567 130.537 247.827 130.49C248.098 130.441 248.387 130.45 248.669 130.45C248.748 130.45 249.042 130.49 248.935 130.442C248.792 130.379 248.675 130.375 248.519 130.375C248.238 130.375 247.979 130.45 247.708 130.45C247.669 130.45 247.56 130.488 247.599 130.488C247.653 130.488 247.683 130.45 247.745 130.45C247.904 130.45 248.065 130.441 248.214 130.394C248.4 130.336 248.803 130.419 248.942 130.308C249.003 130.26 249.234 130.3 249.311 130.3C249.575 130.3 249.429 130.885 249.404 131.015C249.288 131.615 249.245 132.248 249.443 132.841C249.602 133.316 249.7 133.794 249.784 134.29C249.857 134.736 249.876 135.192 249.957 135.635C250.007 135.906 250.03 136.183 250.083 136.453C250.115 136.615 250.192 136.763 250.215 136.927C250.281 137.393 250.31 137.876 250.388 138.337C250.442 138.647 250.431 138.944 250.445 139.257C250.458 139.505 250.518 139.737 250.518 139.987C250.518 140.522 250.627 141.138 250.784 141.649C250.809 141.733 250.859 141.988 250.859 141.9C250.859 141.418 250.722 140.901 250.613 140.432C250.49 139.904 250.351 139.458 250.376 138.895C250.385 138.721 250.567 137.241 250.905 137.385C251.103 137.47 251.226 137.833 251.291 138.017C251.383 138.281 251.387 138.523 251.387 138.799C251.387 139.311 251.432 139.829 251.585 140.321C251.763 140.901 251.779 141.532 251.934 142.118C252.093 142.715 252.168 143.331 252.236 143.944C252.239 143.972 252.291 144.193 252.239 144.069C252.12 143.787 251.999 143.511 251.895 143.222C251.624 142.472 251.357 141.688 251.185 140.907C251.107 140.548 251.075 140.185 251.027 139.822C250.97 139.401 250.873 138.994 250.861 138.567C250.834 137.696 250.743 136.842 250.829 135.972C250.848 135.786 250.884 135.606 250.897 135.419C250.923 134.982 250.971 136.294 250.971 136.733C250.971 137.921 250.902 139.102 250.729 140.28C250.567 141.391 250.417 142.515 250.201 143.617C249.967 144.808 249.598 145.976 249.472 147.185C249.374 148.108 249.37 149.04 249.395 149.967C249.424 151.066 249.613 152.151 249.613 153.252C249.613 153.638 249.636 154.033 249.588 154.417C249.534 154.85 249.427 155.277 249.356 155.707C249.302 156.027 249.236 156.353 249.236 156.678C249.236 156.855 249.274 156.324 249.302 156.149C249.416 155.47 249.559 154.796 249.595 154.107C249.714 151.735 249.652 149.35 249.652 146.976C249.652 145.917 249.618 144.861 249.577 143.804C249.575 143.737 249.575 143.729 249.575 143.674C249.575 143.666 249.575 143.689 249.575 143.697C249.593 144.38 249.639 145.064 249.67 145.746C249.762 147.768 249.925 149.785 250.008 151.807C250.028 152.314 250.055 152.82 250.064 153.327C250.066 153.423 250.082 153.704 250.049 153.614C249.959 153.351 249.95 153.059 249.937 152.784C249.893 151.894 249.917 150.999 249.916 150.109C249.909 147.161 249.839 144.215 249.839 141.267C249.839 140.934 249.866 139.938 249.835 140.269C249.752 141.183 249.648 142.094 249.555 143.007C249.263 145.83 249.015 148.677 249.102 151.518C249.11 151.758 249.145 152.463 249.199 152.229C249.227 152.101 249.227 151.966 249.252 151.836C249.507 150.536 249.661 149.217 249.957 147.926C249.971 147.865 250.146 146.989 250.13 147.545C250.09 148.872 249.916 150.196 249.857 151.523C249.787 153.071 249.768 154.62 249.764 156.17C249.764 156.599 249.762 157.028 249.764 157.458C249.764 157.533 249.757 157.609 249.766 157.684C249.798 157.95 249.78 157.148 249.784 156.881C249.827 153.518 249.743 150.165 249.693 146.805C249.684 146.149 249.725 145.485 249.68 144.83C249.679 144.79 249.68 144.686 249.652 144.713C249.634 144.729 249.636 144.756 249.632 144.778C249.611 144.915 249.593 145.28 249.588 145.357C249.502 146.684 249.397 148.013 249.457 149.344C249.522 150.701 249.687 152.162 250.354 153.373C250.452 153.552 250.577 153.761 250.756 153.882C250.948 154.011 250.998 153.705 251.027 153.589C251.282 152.554 251.269 151.456 251.289 150.4C251.319 148.671 251.3 146.944 251.282 145.215C251.275 144.421 251.278 144.68 251.275 143.986C251.275 143.953 251.319 143.39 251.25 143.333C251.175 143.273 251.191 143.515 251.178 143.609C251.096 144.174 251.061 144.748 251.005 145.316C250.831 147.105 250.695 148.888 250.658 150.686C250.631 151.999 250.611 153.317 250.661 154.63C250.665 154.687 250.64 154.851 250.67 154.802C250.716 154.725 250.711 154.21 250.713 154.191C250.918 151.315 251 148.439 251.123 145.558C251.171 144.438 251.198 143.316 251.271 142.197C251.28 142.079 251.282 141.729 251.312 141.844C251.415 142.247 251.374 142.79 251.412 143.195C251.763 146.929 252.733 150.513 254.126 153.986C254.148 154.042 254.436 154.701 254.429 154.676C254.272 154.129 254.048 153.599 253.882 153.054C253.384 151.419 253.053 149.741 252.805 148.051C252.678 147.187 252.617 146.663 252.544 145.817C252.516 145.483 252.485 144.478 252.482 144.814C252.455 146.837 252.591 148.862 252.541 150.887C252.51 152.089 252.473 153.297 252.389 154.496C252.345 155.138 252.223 153.939 252.218 153.894C251.824 150.951 251.243 148.016 251.169 145.04C251.164 144.846 251.162 144.448 251.169 144.237C251.173 144.132 251.155 143.846 251.221 143.927C251.282 144 251.282 144.107 251.301 144.199C251.399 144.657 251.467 145.123 251.53 145.587C251.644 146.431 251.713 147.279 251.801 148.126C251.822 148.339 251.831 148.418 251.854 148.614C251.861 148.672 251.861 148.841 251.886 148.787C251.911 148.731 251.915 148.668 251.924 148.607C251.986 148.222 252.029 147.833 252.084 147.447C252.275 146.095 252.491 144.743 252.758 143.404C252.848 142.957 252.976 142.534 253.115 142.101C253.115 142.101 253.161 141.846 253.161 141.957C253.161 142.768 253.095 143.576 252.889 144.362C252.83 144.587 252.785 144.913 252.655 145.113C252.61 145.183 252.605 144.951 252.594 144.868C252.553 144.521 252.55 144.142 252.482 143.801C252.444 143.611 252.444 144.188 252.407 144.379" stroke="#496CE2" stroke-linecap="round"/>
<path d="M134.829 60.4707C136.394 60.3016 137.97 60.0889 139.542 59.9763C139.726 59.963 139.177 60.0399 138.994 60.0648C138.493 60.1331 137.98 60.1934 137.487 60.3065C137.445 60.316 136.89 60.483 136.9 60.4965C136.922 60.5245 137.262 60.4423 137.291 60.4375C137.688 60.3691 138.113 60.3605 138.513 60.3305C139.74 60.2384 140.968 60.1727 142.194 60.0667C142.964 60 143.733 59.926 144.499 59.8176C145.078 59.7356 145.697 59.6693 146.26 59.4966C146.795 59.3322 145.142 59.6073 144.582 59.6073C144.269 59.6073 145.201 59.5187 145.512 59.4929C147.476 59.3304 149.444 59.2139 151.413 59.1258C153.286 59.0419 155.164 58.9584 157.032 58.7845C157.066 58.7814 157.574 58.6754 157.331 58.779C156.903 58.9619 156.338 58.9448 155.885 58.9764C154.326 59.085 152.763 59.0664 151.202 59.1092C150.083 59.1399 148.96 59.144 147.843 59.2236C147.614 59.2399 147.263 59.2765 147.688 59.3232C151.416 59.7342 155.171 59.7733 158.918 59.7733C159.093 59.7733 159.616 59.7733 159.442 59.7733C159.281 59.7733 159.12 59.7729 158.959 59.7733C155.742 59.7825 152.515 59.9724 149.304 60.146C148.394 60.1952 147.486 60.2569 146.578 60.3231C146.495 60.3291 146.25 60.3178 146.33 60.3378C146.805 60.4563 147.328 60.4666 147.813 60.5076C149.054 60.6123 150.296 60.6743 151.54 60.7031C151.749 60.708 152.204 60.7363 151.698 60.7363C149.884 60.7363 148.07 60.7095 146.256 60.6847C145.13 60.6693 144.004 60.6478 142.878 60.6183C142.495 60.6082 142.098 60.6227 141.717 60.5703C141.406 60.5276 141.925 60.5371 141.987 60.5371C143.136 60.5371 144.285 60.5371 145.435 60.5371C146.677 60.5371 147.913 60.5124 149.154 60.4725C149.346 60.4663 149.598 60.4939 149.778 60.4042" stroke="#496CE2" stroke-linecap="round"/>
<path d="M157.269 60.0725C157.407 60.0725 157.541 60.0332 157.679 60.0208C158.432 59.9533 159.217 59.9995 159.971 60.0098C162.743 60.0474 165.354 60.9375 168.074 61.3251C168.877 61.4395 169.815 61.5397 170.612 61.3196C170.784 61.2721 170.991 61.2478 171.152 61.1757C171.268 61.1236 171.995 61.1128 171.735 60.8528C171.607 60.7258 171.43 60.7115 171.259 60.6813C170.477 60.5429 169.698 60.4552 168.907 60.3861C167.981 60.3053 167.063 60.2261 166.156 60.0227C165.772 59.9364 165.369 59.8785 164.996 59.7515C164.505 59.5841 164.043 59.4263 163.52 59.3825C162.972 59.3365 162.42 59.298 161.871 59.2607C161.534 59.2379 161.191 59.2121 160.853 59.2091C160.714 59.2078 160.571 59.221 160.433 59.1925C160.171 59.1379 159.839 59.1959 159.596 59.2903C159.253 59.4228 158.917 59.566 158.573 59.6943C157.924 59.9359 157.252 60.0553 156.569 60.1536C156.026 60.2319 155.5 60.3759 154.964 60.4783C154.821 60.5057 154.527 60.4713 154.472 60.637" stroke="#496CE2" stroke-linecap="round"/>
<path d="M324.655 104.58C340.73 104.58 350.413 112.86 350.413 126.408C350.413 140.05 340.73 148.33 324.655 148.33H312.34V171.38H297.957V104.58H324.655ZM312.34 136.193H323.903C331.329 136.193 335.559 132.9 335.559 126.408C335.559 120.01 331.423 116.717 323.903 116.717H312.34V136.193ZM354.08 104.58H368.369V127.725C371.378 122.362 376.642 120.387 382.564 120.387C393.281 120.387 399.298 128.384 399.298 139.298V171.38H385.103V144.284C385.103 136.381 383.317 131.959 377.488 131.959C371.472 131.959 368.369 136.381 368.369 144.284V171.38H354.08V104.58ZM399.937 121.516H413.474L425.789 156.515L437.822 121.516H451.265L431.617 176.179C429.361 182.576 425.037 185.493 417.798 185.493H408.773V175.144H415.072C418.08 175.144 419.584 174.203 420.618 171.945L421.84 168.84H417.892L399.937 121.516ZM480.834 137.698C480.082 133.088 476.134 130.265 471.81 130.265C467.579 130.265 464.289 132.523 464.477 136.099C464.665 139.768 468.896 141.367 473.596 142.12C488.261 144.472 495.5 148.33 495.5 157.738C495.5 167.711 486.099 172.509 473.314 172.509C458.743 172.509 449.436 166.206 448.684 155.574L462.973 154.821C463.819 159.62 467.297 162.536 473.032 162.536C476.604 162.536 480.928 161.031 480.928 157.456C480.834 153.222 476.04 152.469 471.246 151.434C457.521 148.8 449.812 145.413 449.812 136.193C449.812 126.22 458.179 120.292 472.374 120.292C484.971 120.292 493.431 126.69 495.124 137.134L480.834 137.698ZM498.458 121.516H512.748V171.38H498.458V121.516ZM498.27 115.024V104.58H512.936V115.024H498.27ZM551.884 140.615C551.038 134.593 547.09 131.3 542.107 131.3C535.057 131.3 531.109 136.851 531.109 146.448C531.109 156.045 535.057 161.596 542.107 161.596C547.372 161.596 551.226 158.303 552.072 151.811L566.737 152.375C565.421 164.794 555.362 172.509 542.107 172.509C526.69 172.509 516.538 162.254 516.538 146.448C516.538 130.642 526.69 120.387 542.107 120.387C554.986 120.387 565.139 127.819 566.455 139.956L551.884 140.615ZM568.608 121.516H582.897V171.38H568.608V121.516ZM568.42 115.024V104.58H583.085V115.024H568.42ZM587.807 136.945C589.781 126.314 597.959 120.387 611.026 120.387C626.162 120.387 633.964 127.819 633.964 142.12V157.738C633.964 161.031 635.28 161.69 637.066 161.69H638.947V171.38L636.408 171.474C633.118 171.568 623.435 172.509 622.025 163.854C619.675 168.934 613.941 172.509 604.916 172.509C594.857 172.509 587.055 167.052 587.055 158.303C587.055 148.988 593.917 145.507 605.95 143.061L619.675 140.332C619.581 133.088 616.761 129.701 611.026 129.701C606.232 129.701 603.224 132.335 602.096 137.698L587.807 136.945ZM601.626 157.738C601.626 160.843 604.258 163.289 609.334 163.289C615.445 163.289 619.863 158.679 619.863 149.741V149.176L611.59 150.682C605.856 151.811 601.626 152.658 601.626 157.738ZM641.602 121.516H654.387L654.763 129.513C657.49 122.927 663.036 120.387 669.616 120.387C680.521 120.387 686.82 127.725 686.82 139.298V171.38H672.625V144.002C672.625 136.099 670.839 131.677 665.01 131.677C658.994 131.677 655.891 136.099 655.891 144.002V171.38H641.602V121.516ZM721.946 137.698C721.194 133.088 717.245 130.265 712.921 130.265C708.691 130.265 705.4 132.523 705.588 136.099C705.776 139.768 710.007 141.367 714.707 142.12C729.372 144.472 736.611 148.33 736.611 157.738C736.611 167.711 727.21 172.509 714.425 172.509C699.854 172.509 690.547 166.206 689.795 155.574L704.084 154.821C704.93 159.62 708.409 162.536 714.143 162.536C717.715 162.536 722.04 161.031 722.04 157.456C721.946 153.222 717.151 152.469 712.357 151.434C698.632 148.8 690.923 145.413 690.923 136.193C690.923 126.22 699.29 120.292 713.485 120.292C726.082 120.292 734.543 126.69 736.235 137.134L721.946 137.698ZM757.541 104.58H803.605V116.717H771.924V132.806H801.913V144.66H771.924V171.38H757.541V104.58ZM807.974 121.516H822.263V171.38H807.974V121.516ZM807.786 115.024V104.58H822.451V115.024H807.786ZM827.671 121.516H841.208L841.49 131.488C843.464 124.808 847.224 121.516 853.523 121.516H858.035V132.147H853.335C845.156 132.147 841.96 135.91 841.96 143.625V171.38H827.671V121.516ZM888.092 137.698C887.34 133.088 883.391 130.265 879.067 130.265C874.837 130.265 871.546 132.523 871.734 136.099C871.922 139.768 876.153 141.367 880.853 142.12C895.518 144.472 902.757 148.33 902.757 157.738C902.757 167.711 893.356 172.509 880.571 172.509C866 172.509 856.693 166.206 855.941 155.574L870.23 154.821C871.076 159.62 874.555 162.536 880.289 162.536C883.861 162.536 888.186 161.031 888.186 157.456C888.092 153.222 883.297 152.469 878.503 151.434C864.778 148.8 857.069 145.413 857.069 136.193C857.069 126.22 865.436 120.292 879.631 120.292C892.228 120.292 900.689 126.69 902.381 137.134L888.092 137.698ZM910.256 110.225H924.545V121.516H937.612V132.053H924.545V155.01C924.545 158.773 926.425 160.749 929.998 160.749H937.706V171.38H926.989C916.085 171.38 910.256 166.018 910.256 155.01V132.053H902.172V121.516H910.256V110.225Z" fill="#161616"/>
<path d="M292 241.068L302.924 210.685H306.819L317.743 241.068H314.568L311.392 231.995H298.351L295.176 241.068H292ZM299.367 229.086H310.376L304.872 213.338L299.367 229.086ZM338.137 225.833C337.46 222.581 334.962 220.655 331.913 220.655C327.509 220.655 324.884 224.079 324.884 229.727C324.884 235.376 327.509 238.8 331.913 238.8C335.089 238.8 337.629 236.703 338.306 233.151L341.355 233.365C340.508 238.372 336.782 241.581 331.913 241.581C325.646 241.581 321.878 236.703 321.878 229.727C321.878 222.752 325.646 217.874 331.913 217.874C336.613 217.874 340.381 220.869 341.143 225.662L338.137 225.833ZM362.945 225.833C362.267 222.581 359.769 220.655 356.721 220.655C352.317 220.655 349.692 224.079 349.692 229.727C349.692 235.376 352.317 238.8 356.721 238.8C359.896 238.8 362.437 236.703 363.114 233.151L366.163 233.365C365.316 238.372 361.59 241.581 356.721 241.581C350.454 241.581 346.686 236.703 346.686 229.727C346.686 222.752 350.454 217.874 356.721 217.874C361.421 217.874 365.189 220.869 365.951 225.662L362.945 225.833ZM381.528 241.581C375.431 241.581 371.493 236.959 371.493 229.727C371.493 222.495 375.431 217.874 381.528 217.874C387.625 217.874 391.563 222.495 391.563 229.727C391.563 236.959 387.625 241.581 381.528 241.581ZM374.499 229.727C374.499 235.376 377.125 238.8 381.528 238.8C385.932 238.8 388.557 235.376 388.557 229.727C388.557 224.079 385.932 220.655 381.528 220.655C377.125 220.655 374.499 224.079 374.499 229.727ZM415.551 241.068H412.842L412.799 236.917C411.741 240.126 408.946 241.581 405.771 241.581C400.817 241.581 398.361 237.773 398.361 232.98V218.387H401.198V231.91C401.198 236.36 402.722 238.971 406.406 238.971C410.259 238.971 412.672 236.36 412.672 231.91V218.387H415.551V241.068ZM424.161 218.387H426.744L426.871 222.538C427.929 219.329 430.724 217.874 433.984 217.874C439.023 217.874 441.521 221.682 441.521 226.475V241.068H438.642V227.502C438.642 223.095 437.16 220.484 433.391 220.484C429.454 220.484 426.998 223.095 426.998 227.502V241.068H424.161V218.387ZM451.589 213.252H454.426V218.387H460.269V220.998H454.426V235.504C454.426 237.473 455.4 238.5 457.263 238.5H460.226V241.068H457.263C453.664 241.068 451.589 239.014 451.589 235.504V220.998H448.117V218.387H451.589V213.252ZM465.978 225.063C466.825 220.613 470.169 217.874 474.912 217.874C480.628 217.874 483.719 221.212 483.719 227.374V236.703C483.719 237.944 484.184 238.457 485.243 238.457H486.132V241.068H484.82C482.618 241.068 480.839 240.212 480.882 237.131C479.781 239.655 477.071 241.538 473.43 241.581C468.942 241.538 465.597 239.142 465.597 235.248C465.597 230.754 469.153 229.428 473.811 228.529L480.839 227.203C480.797 222.709 478.934 220.655 474.912 220.655C471.736 220.655 469.661 222.324 469.026 225.32L465.978 225.063ZM468.603 235.248C468.603 237.43 470.424 239.056 473.896 238.971C477.918 238.928 480.967 235.975 480.924 230.883V229.77L475.166 230.797C471.736 231.439 468.603 231.867 468.603 235.248ZM492.795 210.685H495.632V222.153C496.86 219.628 499.654 217.917 502.788 217.917C508.631 217.917 512.23 222.495 512.23 229.727C512.23 237.002 508.631 241.581 502.788 241.581C499.57 241.581 496.733 239.869 495.42 237.088L495.293 241.068H492.795V210.685ZM495.378 229.727C495.378 235.248 498.13 238.842 502.279 238.842C506.556 238.842 509.266 235.333 509.266 229.727C509.266 224.122 506.556 220.57 502.279 220.57C498.13 220.57 495.378 224.207 495.378 229.727ZM519.422 210.685H522.259V236.831C522.259 237.944 522.809 238.5 523.953 238.5H525.689V241.068H523.656C521.031 241.068 519.422 239.484 519.422 236.959V210.685ZM530.675 229.727C530.675 222.752 534.443 217.874 540.71 217.874C546.087 217.874 550.109 221.811 550.363 229.385L550.406 230.583H533.681C533.935 235.718 536.518 238.8 540.71 238.8C543.42 238.8 545.833 237.216 546.892 234.52L549.982 234.734C548.67 238.971 544.986 241.581 540.71 241.581C534.443 241.581 530.675 236.703 530.675 229.727ZM533.766 228.016H547.273C546.764 222.881 544.055 220.655 540.71 220.655C536.772 220.655 534.274 223.394 533.766 228.016ZM593.742 230.883C592.641 237.516 588.449 241.752 581.844 241.752C573.418 241.752 568.464 234.991 568.464 225.919C568.464 216.761 573.418 210 581.844 210C587.941 210 592.175 213.937 593.488 220.185L590.355 220.399C589.381 215.691 586.248 212.91 581.844 212.91C574.943 212.91 571.555 218.601 571.555 225.919C571.555 233.194 574.985 238.842 581.844 238.842C586.459 238.842 589.677 235.932 590.609 230.669L593.742 230.883ZM599.731 225.063C600.578 220.613 603.922 217.874 608.665 217.874C614.381 217.874 617.472 221.212 617.472 227.374V236.703C617.472 237.944 617.937 238.457 618.996 238.457H619.885V241.068H618.573C616.371 241.068 614.592 240.212 614.635 237.131C613.534 239.655 610.824 241.538 607.183 241.581C602.695 241.538 599.35 239.142 599.35 235.248C599.35 230.754 602.906 229.428 607.564 228.529L614.592 227.203C614.55 222.709 612.687 220.655 608.665 220.655C605.489 220.655 603.414 222.324 602.779 225.32L599.731 225.063ZM602.356 235.248C602.356 237.43 604.177 239.056 607.649 238.971C611.671 238.928 614.72 235.975 614.677 230.883V229.77L608.919 230.797C605.489 231.439 602.356 231.867 602.356 235.248ZM626.26 218.387H628.716L628.843 222.881C629.69 219.885 631.51 218.387 634.474 218.387H636.422V220.955H634.474C630.96 220.955 629.097 223.437 629.097 227.545V241.068H626.26V218.387ZM640.489 229.727C640.489 222.752 644.258 217.874 650.524 217.874C655.902 217.874 659.924 221.811 660.178 229.385L660.22 230.583H643.496C643.75 235.718 646.332 238.8 650.524 238.8C653.234 238.8 655.648 237.216 656.706 234.52L659.797 234.734C658.484 238.971 654.801 241.581 650.524 241.581C644.258 241.581 640.489 236.703 640.489 229.727ZM643.58 228.016H657.087C656.579 222.881 653.869 220.655 650.524 220.655C646.587 220.655 644.088 223.394 643.58 228.016ZM691.786 241.752C683.402 241.752 678.279 235.676 678.279 225.919C678.279 216.077 683.402 210 691.786 210C700.212 210 705.293 216.077 705.293 225.919C705.293 235.676 700.212 241.752 691.786 241.752ZM681.37 225.919C681.37 233.921 685.308 238.842 691.786 238.842C698.306 238.842 702.244 233.921 702.244 225.919C702.244 217.874 698.306 212.91 691.786 212.91C685.308 212.91 681.37 217.874 681.37 225.919ZM711.845 218.387H714.301L714.428 222.881C715.275 219.885 717.095 218.387 720.059 218.387H722.007V220.955H720.059C716.545 220.955 714.682 223.437 714.682 227.545V241.068H711.845V218.387ZM735.813 239.912C730.012 239.912 726.074 235.462 726.074 228.872C726.074 222.324 729.97 217.917 735.77 217.917C738.946 217.917 741.698 219.757 742.757 222.538V218.387H745.509V238.757C745.509 244.705 741.656 248 735.94 248C731.155 248 727.556 245.304 726.836 241.367L729.843 241.196C730.52 243.678 732.764 245.261 735.94 245.261C740.089 245.261 742.672 243.079 742.672 239.356V235.419C741.444 238.158 738.777 239.912 735.813 239.912ZM729.08 228.872C729.08 233.964 731.706 237.131 735.94 237.131C740.004 237.131 742.714 233.878 742.714 228.872C742.799 223.908 740.089 220.698 735.94 220.698C731.706 220.698 729.08 223.822 729.08 228.872ZM753.083 225.063C753.929 220.613 757.274 217.874 762.017 217.874C767.733 217.874 770.824 221.212 770.824 227.374V236.703C770.824 237.944 771.289 238.457 772.348 238.457H773.237V241.068H771.924C769.723 241.068 767.944 240.212 767.987 237.131C766.886 239.655 764.176 241.538 760.535 241.581C756.047 241.538 752.702 239.142 752.702 235.248C752.702 230.754 756.258 229.428 760.916 228.529L767.944 227.203C767.902 222.709 766.039 220.655 762.017 220.655C758.841 220.655 756.766 222.324 756.131 225.32L753.083 225.063ZM755.708 235.248C755.708 237.43 757.528 239.056 761 238.971C765.023 238.928 768.071 235.975 768.029 230.883V229.77L762.271 230.797C758.841 231.439 755.708 231.867 755.708 235.248ZM779.609 218.387H782.192L782.319 222.538C783.378 219.329 786.172 217.874 789.433 217.874C794.471 217.874 796.969 221.682 796.969 226.475V241.068H794.09V227.502C794.09 223.095 792.608 220.484 788.84 220.484C784.902 220.484 782.446 223.095 782.446 227.502V241.068H779.609V218.387ZM805.575 218.387H808.412V241.068H805.575V218.387ZM805.491 214.793V211.027H808.497V214.793H805.491ZM833.92 221.511L819.185 238.457H834.259V241.068H816.052V237.986L830.787 220.998H816.475V218.387H833.92V221.511ZM840.777 225.063C841.623 220.613 844.968 217.874 849.711 217.874C855.427 217.874 858.518 221.212 858.518 227.374V236.703C858.518 237.944 858.983 238.457 860.042 238.457H860.931V241.068H859.618C857.417 241.068 855.638 240.212 855.681 237.131C854.58 239.655 851.87 241.538 848.229 241.581C843.74 241.538 840.396 239.142 840.396 235.248C840.396 230.754 843.952 229.428 848.61 228.529L855.638 227.203C855.596 222.709 853.733 220.655 849.711 220.655C846.535 220.655 844.46 222.324 843.825 225.32L840.777 225.063ZM843.402 235.248C843.402 237.43 845.222 239.056 848.694 238.971C852.717 238.928 855.765 235.975 855.723 230.883V229.77L849.965 230.797C846.535 231.439 843.402 231.867 843.402 235.248ZM867.981 213.252H870.818V218.387H876.661V220.998H870.818V235.504C870.818 237.473 871.792 238.5 873.655 238.5H876.618V241.068H873.655C870.056 241.068 867.981 239.014 867.981 235.504V220.998H864.509V218.387H867.981V213.252ZM883.43 218.387H886.267V241.068H883.43V218.387ZM883.345 214.793V211.027H886.352V214.793H883.345ZM903.518 241.581C897.421 241.581 893.483 236.959 893.483 229.727C893.483 222.495 897.421 217.874 903.518 217.874C909.616 217.874 913.553 222.495 913.553 229.727C913.553 236.959 909.616 241.581 903.518 241.581ZM896.49 229.727C896.49 235.376 899.115 238.8 903.518 238.8C907.922 238.8 910.547 235.376 910.547 229.727C910.547 224.079 907.922 220.655 903.518 220.655C899.115 220.655 896.49 224.079 896.49 229.727ZM920.64 218.387H923.223L923.35 222.538C924.408 219.329 927.203 217.874 930.463 217.874C935.502 217.874 938 221.682 938 226.475V241.068H935.121V227.502C935.121 223.095 933.639 220.484 929.87 220.484C925.933 220.484 923.477 223.095 923.477 227.502V241.068H920.64V218.387Z" fill="#161616"/>
<defs>
<filter id="filter0_d_98_159" x="60.5043" y="73.9331" width="182.185" height="177.985" filterUnits="userSpaceOnUse" color-interpolation-filters="sRGB">
<feFlood flood-opacity="0" result="BackgroundImageFix"/>
<feColorMatrix in="SourceAlpha" type="matrix" values="0 0 0 0 0 0 0 0 0 0 0 0 0 0 0 0 0 0 127 0" result="hardAlpha"/>
<feOffset dy="4"/>
<feGaussianBlur stdDeviation="2"/>
<feComposite in2="hardAlpha" operator="out"/>
<feColorMatrix type="matrix" values="0 0 0 0 0 0 0 0 0 0 0 0 0 0 0 0 0 0 0.25 0"/>
<feBlend mode="normal" in2="BackgroundImageFix" result="effect1_dropShadow_98_159"/>
<feBlend mode="normal" in="SourceGraphic" in2="effect1_dropShadow_98_159" result="shape"/>
</filter>
</defs>
</svg>
