<svg width="987" height="318" viewBox="0 0 987 318" fill="none" xmlns="http://www.w3.org/2000/svg">
<path d="M211.68 129.023C211.68 142.567 200.531 153.72 186.992 153.72C173.453 153.72 162.304 142.567 162.304 129.023C162.304 115.48 173.453 104.327 186.992 104.327C200.531 104.327 211.68 115.48 211.68 129.023ZM186.992 163.28C173.453 163.28 162.304 174.433 162.304 187.977C162.304 201.52 173.453 212.673 186.992 212.673C200.531 212.673 211.68 201.52 211.68 187.977C211.68 174.433 200.531 163.28 186.992 163.28ZM335.917 158.5C335.917 224.623 282.559 278 216.458 278C150.358 278 97 224.623 97 158.5C97 92.3767 150.358 39 216.458 39C282.559 39 335.917 92.3767 335.917 158.5ZM304.061 158.5C304.061 109.903 265.038 70.8667 216.458 70.8667C167.879 70.8667 128.856 109.903 128.856 158.5C128.856 207.097 167.879 246.133 216.458 246.133C265.038 246.133 304.061 207.097 304.061 158.5ZM245.925 163.28C232.386 163.28 221.237 174.433 221.237 187.977C221.237 201.52 232.386 212.673 245.925 212.673C259.463 212.673 270.613 201.52 270.613 187.977C270.613 174.433 259.463 163.28 245.925 163.28ZM245.925 104.327C232.386 104.327 221.237 115.48 221.237 129.023C221.237 142.567 232.386 153.72 245.925 153.72C259.463 153.72 270.613 142.567 270.613 129.023C270.613 115.48 259.463 104.327 245.925 104.327ZM656.862 86.0033C657.658 86.0033 658.454 86.8 659.251 87.5967V113.09C659.251 114.683 657.658 115.48 656.862 115.48H614.653C613.06 115.48 612.264 113.887 612.264 113.09V88.3933C612.264 86.8 613.857 86.0033 614.653 86.0033H656.862ZM656.065 121.853H574.834C574.037 121.853 572.444 122.65 572.444 124.243L562.091 164.077L561.295 166.467L548.553 124.243C548.553 123.447 546.96 121.853 546.164 121.853H514.308C513.512 121.853 511.919 122.65 511.919 124.243L499.973 164.077L499.177 166.467L498.38 164.077L493.602 144.16L488.823 124.243C488.823 123.447 487.231 121.853 486.434 121.853H422.723V87.5967C422.723 86.8 421.13 85.2067 419.538 86.0033L379.718 98.75C378.125 98.75 377.329 99.5467 377.329 101.14V122.65H366.976C366.18 122.65 364.587 123.447 364.587 125.04V155.313C364.587 156.11 365.383 157.703 366.976 157.703H377.329V195.147C377.329 221.437 391.664 233.387 417.945 233.387C429.094 233.387 439.447 230.997 446.615 227.013V195.147C446.615 193.553 445.022 192.757 444.226 193.553C440.244 195.147 436.262 195.943 433.076 195.943C425.909 195.943 421.927 192.757 421.927 184.79V157.703H445.022C445.818 157.703 447.411 156.907 447.411 155.313V129.82L477.674 230.2C477.674 230.997 479.267 232.59 480.063 232.59H513.512C514.308 232.59 515.901 231.793 515.901 230.2L530.236 185.587L537.403 208.69L543.774 230.2C543.774 230.997 545.367 232.59 546.164 232.59H579.612C580.408 232.59 582.001 231.793 582.001 230.2L612.264 129.82V230.2C612.264 230.997 613.06 232.59 614.653 232.59H655.269C656.065 232.59 657.658 231.793 657.658 230.2V124.243C657.658 123.447 656.862 121.853 656.065 121.853ZM709.423 86.0033H668.807C668.011 86.0033 666.418 86.8 666.418 88.3933V229.403C666.418 230.2 667.215 231.793 668.807 231.793H709.423C710.22 231.793 711.812 230.997 711.812 229.403V87.5967C711.812 86.8 711.016 86.0033 709.423 86.0033ZM763.578 86.0033H721.369C720.573 86.0033 718.98 86.8 718.98 88.3933V113.09C718.98 113.887 719.776 115.48 721.369 115.48H763.578C764.374 115.48 765.967 114.683 765.967 113.09V87.5967C765.967 86.8 765.171 86.0033 763.578 86.0033ZM762.781 121.853H722.166C721.369 121.853 719.776 122.65 719.776 124.243V228.607C719.776 229.403 720.573 230.997 722.166 230.997H762.781C763.578 230.997 765.171 230.2 765.171 228.607V124.243C765.171 123.447 764.374 121.853 762.781 121.853ZM891 176.027C891 206.3 865.516 232.59 829.678 232.59C794.637 232.59 769.152 206.3 769.152 176.027C769.152 145.753 794.637 119.463 830.474 119.463C865.516 119.463 891 145.753 891 176.027ZM847.995 176.823C847.995 165.67 840.031 156.907 830.474 157.703C820.121 157.703 812.954 166.467 812.954 176.823C812.954 187.18 820.918 195.943 830.474 195.943C840.827 195.943 847.995 187.18 847.995 176.823Z" fill="#F22F46"/>
</svg>
