<svg width="987" height="318" viewBox="0 0 987 318" fill="none" xmlns="http://www.w3.org/2000/svg">
<g clip-path="url(#clip0_98_125)">
<path d="M346.884 154.438C346.884 188.937 369.094 212.991 399.871 212.991C430.648 212.991 452.858 188.937 452.858 154.438C452.858 119.94 430.648 95.8857 399.871 95.8857C369.094 95.8857 346.884 119.94 346.884 154.438ZM432.552 154.438C432.552 179.125 419.067 195.109 399.871 195.109C380.675 195.109 367.191 179.125 367.191 154.438C367.191 129.751 380.675 113.768 399.871 113.768C419.067 113.768 432.552 129.751 432.552 154.438Z" fill="black"/>
<path d="M510.043 212.991C533.364 212.991 546.69 193.368 546.69 169.788C546.69 146.209 533.364 126.586 510.043 126.586C499.255 126.586 491.323 130.859 486.088 137.031V128.169H467.05V239.735H486.088V202.546C491.323 208.718 499.255 212.991 510.043 212.991ZM485.612 167.415C485.612 151.748 494.496 143.202 506.235 143.202C520.037 143.202 527.494 153.963 527.494 169.788C527.494 185.613 520.037 196.374 506.235 196.374C494.496 196.374 485.612 187.671 485.612 172.32V167.415Z" fill="black"/>
<path d="M598.209 212.991C614.867 212.991 628.034 204.287 633.904 189.728L617.564 183.556C615.026 192.102 607.569 196.849 598.209 196.849C585.994 196.849 577.427 188.145 575.999 173.903H634.38V167.573C634.38 144.785 621.53 126.586 597.416 126.586C573.302 126.586 557.755 145.418 557.755 169.788C557.755 195.425 574.413 212.991 598.209 212.991ZM597.257 142.569C609.314 142.569 615.026 150.482 615.184 159.66H576.951C579.807 148.425 587.422 142.569 597.257 142.569Z" fill="black"/>
<path d="M648.665 211.25H667.702V162.509C667.702 150.64 676.427 144.31 684.994 144.31C695.465 144.31 699.59 151.748 699.59 162.034V211.25H718.627V156.495C718.627 138.613 708.156 126.586 690.705 126.586C679.918 126.586 672.461 131.492 667.702 137.031V128.169H648.665V211.25Z" fill="black"/>
<path d="M774.384 97.6265L731.232 211.25H751.38L761.058 185.297H810.237L820.073 211.25H840.538L797.387 97.6265H774.384ZM785.489 120.098L803.574 167.573H767.721L785.489 120.098Z" fill="black"/>
<path d="M873.219 97.9563H852.912V211.58H873.219V97.9563Z" fill="black"/>
<path d="M300.362 139.358C305.161 124.991 303.508 109.251 295.834 96.1825C284.292 76.1375 261.091 65.8248 238.431 70.6778C228.351 59.3498 213.868 52.9077 198.684 53C175.522 52.9473 154.971 67.8228 147.845 89.8063C132.966 92.846 120.122 102.137 112.606 115.304C100.979 135.297 103.63 160.498 119.164 177.642C114.365 192.009 116.017 207.749 123.692 220.818C135.233 240.863 158.435 251.175 181.094 246.322C191.168 257.65 205.658 264.092 220.841 263.993C244.017 264.053 264.574 249.164 271.7 227.161C286.58 224.121 299.423 214.83 306.939 201.663C318.553 181.67 315.896 156.489 300.368 139.345L300.362 139.358ZM220.855 250.206C211.581 250.219 202.597 246.982 195.478 241.054C195.802 240.882 196.364 240.572 196.727 240.348L238.847 216.083C241.002 214.863 242.324 212.575 242.311 210.103V150.871L260.112 161.124C260.304 161.217 260.43 161.401 260.456 161.612V210.663C260.43 232.475 242.721 250.16 220.855 250.206ZM135.689 213.92C131.042 205.916 129.37 196.533 130.963 187.427C131.274 187.611 131.822 187.948 132.212 188.172L174.332 212.437C176.467 213.683 179.111 213.683 181.253 212.437L232.674 182.818V203.324C232.687 203.535 232.588 203.74 232.422 203.872L189.846 228.394C170.882 239.287 146.662 232.812 135.696 213.92H135.689ZM124.604 122.208C129.231 114.19 136.535 108.058 145.234 104.873C145.234 105.236 145.214 105.875 145.214 106.324V154.86C145.201 157.326 146.523 159.614 148.672 160.834L200.092 190.447L182.291 200.7C182.112 200.819 181.888 200.838 181.689 200.753L139.107 176.211C120.182 165.278 113.691 141.125 124.597 122.215L124.604 122.208ZM270.861 156.159L219.44 126.54L237.241 116.293C237.42 116.175 237.644 116.155 237.843 116.241L280.425 140.763C299.383 151.689 305.881 175.881 294.928 194.792C290.294 202.797 282.997 208.929 274.304 212.12V162.133C274.324 159.667 273.009 157.386 270.867 156.159H270.861ZM288.576 129.56C288.265 129.369 287.716 129.039 287.326 128.815L245.206 104.55C243.071 103.304 240.427 103.304 238.286 104.55L186.865 134.169V113.663C186.852 113.452 186.951 113.247 187.116 113.115L229.692 88.6128C248.657 77.7002 272.903 84.195 283.836 103.119C288.457 111.111 290.129 120.467 288.563 129.56H288.576ZM177.188 166.109L159.38 155.856C159.188 155.764 159.063 155.579 159.036 155.368V106.317C159.05 84.4786 176.811 66.7809 198.704 66.7941C207.965 66.7941 216.928 70.0383 224.047 75.9463C223.723 76.1177 223.168 76.4276 222.798 76.6518L180.678 100.917C178.523 102.137 177.201 104.418 177.214 106.891L177.188 166.096V166.109ZM186.858 145.313L209.763 132.118L232.667 145.306V171.688L209.763 184.875L186.858 171.688V145.313Z" fill="black"/>
</g>
<defs>
<clipPath id="clip0_98_125">
<rect width="780" height="211" fill="white" transform="translate(104 53)"/>
</clipPath>
</defs>
</svg>
