<svg width="997" height="318" viewBox="0 0 997 318" fill="none" xmlns="http://www.w3.org/2000/svg">
<path d="M260.275 158.628C260.275 220.369 212.308 270.421 153.137 270.421C93.9671 270.421 46 220.369 46 158.628C46 96.8867 93.9671 48 153.137 48C212.308 48 260.275 96.8867 260.275 158.628Z" fill="#0077B6" fill-opacity="0.11"/>
<path d="M260.034 151.073C260.141 152.739 260.212 154.415 260.248 156.102L259.498 156.118C259.516 156.952 259.525 157.789 259.525 158.628C259.525 159.471 259.516 160.311 259.498 161.149L260.248 161.165C260.212 162.859 260.14 164.543 260.032 166.217L259.284 166.169C259.176 167.848 259.032 169.517 258.853 171.174L259.599 171.255C259.418 172.938 259.201 174.609 258.949 176.269L258.207 176.156C257.955 177.818 257.667 179.468 257.344 181.105L258.08 181.25C257.753 182.911 257.391 184.558 256.994 186.191L256.265 186.014C255.868 187.648 255.437 189.267 254.971 190.871L255.691 191.08C255.22 192.704 254.714 194.313 254.174 195.905L253.464 195.665C252.925 197.256 252.352 198.83 251.746 200.387L252.445 200.659C251.832 202.234 251.185 203.792 250.506 205.331L249.82 205.028C249.142 206.564 248.432 208.081 247.69 209.579L248.362 209.912C247.612 211.426 246.829 212.919 246.015 214.392L245.359 214.029C244.547 215.498 243.704 216.946 242.831 218.371L243.47 218.763C242.588 220.203 241.675 221.621 240.732 223.015L240.11 222.595C239.171 223.984 238.201 225.35 237.203 226.692L237.804 227.14C236.796 228.494 235.759 229.824 234.693 231.128L234.113 230.653C233.051 231.951 231.962 233.224 230.846 234.469L231.404 234.97C230.278 236.227 229.124 237.457 227.943 238.658L227.408 238.133C226.234 239.328 225.033 240.496 223.807 241.634L224.317 242.184C223.08 243.331 221.818 244.45 220.531 245.538L220.047 244.965C218.768 246.046 217.464 247.097 216.136 248.117L216.593 248.712C215.256 249.739 213.895 250.735 212.511 251.698L212.083 251.083C210.708 252.039 209.312 252.963 207.894 253.853L208.292 254.488C206.865 255.385 205.416 256.247 203.946 257.075L203.578 256.421C202.12 257.242 200.641 258.029 199.144 258.78L199.48 259.45C197.974 260.205 196.449 260.924 194.905 261.607L194.601 260.921C193.073 261.597 191.525 262.237 189.961 262.839L190.231 263.539C188.66 264.144 187.072 264.711 185.468 265.241L185.233 264.528C183.647 265.052 182.045 265.537 180.428 265.984L180.627 266.707C179.007 267.154 177.371 267.563 175.721 267.933L175.557 267.201C173.929 267.565 172.288 267.891 170.633 268.176L170.761 268.916C169.105 269.201 167.438 269.448 165.758 269.653L165.667 268.909C164.013 269.111 162.347 269.274 160.67 269.397L160.725 270.145C159.052 270.267 157.368 270.349 155.674 270.39L155.656 269.64C154.819 269.66 153.979 269.671 153.137 269.671C152.296 269.671 151.456 269.66 150.619 269.64L150.601 270.39C148.907 270.349 147.223 270.267 145.55 270.145L145.605 269.397C143.928 269.274 142.262 269.111 140.608 268.909L140.517 269.653C138.837 269.448 137.169 269.201 135.514 268.916L135.642 268.176C133.987 267.891 132.346 267.565 130.718 267.201L130.554 267.933C128.904 267.563 127.268 267.154 125.648 266.707L125.847 265.984C124.23 265.537 122.628 265.052 121.042 264.528L120.807 265.241C119.203 264.711 117.615 264.144 116.044 263.539L116.314 262.839C114.75 262.237 113.202 261.597 111.674 260.921L111.37 261.607C109.826 260.924 108.301 260.205 106.795 259.45L107.131 258.78C105.634 258.029 104.155 257.242 102.697 256.421L102.329 257.075C100.859 256.247 99.4102 255.385 97.9826 254.488L98.3814 253.853C96.9632 252.963 95.5665 252.039 94.1924 251.083L93.7639 251.698C92.3801 250.735 91.0191 249.739 89.6817 248.712L90.1386 248.117C88.8113 247.097 87.5075 246.046 86.2281 244.965L85.7439 245.538C84.4571 244.45 83.1948 243.331 81.9582 242.184L82.4684 241.634C81.2421 240.496 80.0411 239.328 78.8665 238.133L78.3315 238.658C77.151 237.457 75.9971 236.227 74.8706 234.97L75.4291 234.469C74.3127 233.224 73.2235 231.951 72.1624 230.653L71.5817 231.127C70.5162 229.824 69.4789 228.494 68.4708 227.14L69.0724 226.692C68.0741 225.35 67.1045 223.984 66.1647 222.595L65.5434 223.015C64.6004 221.621 63.6873 220.203 62.8048 218.763L63.4443 218.371C62.571 216.946 61.728 215.498 60.9163 214.029L60.2599 214.392C59.4461 212.919 58.6635 211.426 57.9131 209.912L58.5851 209.579C57.843 208.081 57.1325 206.564 56.4547 205.028L55.7686 205.331C55.0896 203.792 54.4431 202.234 53.83 200.659L54.529 200.387C53.9232 198.83 53.3503 197.256 52.8111 195.665L52.1008 195.905C51.5612 194.313 51.0552 192.704 50.5837 191.08L51.3039 190.87C50.8384 189.267 50.4068 187.647 50.0098 186.014L49.281 186.191C48.8842 184.558 48.5218 182.911 48.1947 181.25L48.9305 181.105C48.6082 179.468 48.3204 177.818 48.0678 176.156L47.3264 176.269C47.0742 174.609 46.8571 172.938 46.6758 171.255L47.4215 171.174C47.2429 169.517 47.0993 167.848 46.9915 166.169L46.243 166.217C46.1354 164.543 46.0632 162.859 46.0271 161.165L46.7769 161.149C46.759 160.311 46.75 159.471 46.75 158.628C46.75 157.789 46.7589 156.952 46.7767 156.118L46.0269 156.102C46.0627 154.415 46.1344 152.739 46.2412 151.073L46.9897 151.121C47.0968 149.449 47.2396 147.788 47.4171 146.139L46.6714 146.059C46.8518 144.383 47.0679 142.719 47.3188 141.068L48.0603 141.18C48.3119 139.525 48.5987 137.883 48.92 136.255L48.1842 136.11C48.5105 134.456 48.8722 132.816 49.2683 131.191L49.997 131.369C50.3935 129.743 50.8248 128.132 51.2899 126.536L50.5699 126.326C51.0414 124.709 51.5475 123.109 52.0873 121.525L52.7972 121.767C53.3368 120.184 53.9103 118.618 54.5168 117.07L53.8185 116.797C54.4326 115.229 55.0804 113.681 55.7608 112.151L56.4461 112.456C57.1255 110.929 57.8378 109.422 58.5819 107.935L57.9111 107.599C58.6639 106.095 59.4491 104.611 60.2656 103.149L60.9204 103.515C61.735 102.056 62.581 100.62 63.4575 99.2055L62.8201 98.8104C63.706 97.3813 64.6229 95.9752 65.5697 94.593L66.1885 95.0168C67.132 93.6395 68.1056 92.2861 69.1081 90.9576L68.5095 90.5058C69.5218 89.1643 70.5636 87.848 71.6337 86.5578L72.2109 87.0366C73.2763 85.7522 74.37 84.494 75.4909 83.2628L74.9364 82.7579C76.0674 81.5158 77.226 80.301 78.4112 79.1146L78.9418 79.6447C80.1206 78.4648 81.3259 77.3131 82.5567 76.1907L82.0513 75.6365C83.292 74.5051 84.5585 73.4032 85.8496 72.3318L86.3286 72.909C87.6114 71.8445 88.9188 70.8103 90.2498 69.8075L89.7985 69.2085C91.1389 68.1986 92.503 67.2202 93.8899 66.2744L94.3125 66.894C95.6889 65.9553 97.0878 65.0489 98.5082 64.1757L98.1155 63.5368C99.5444 62.6584 100.995 61.8134 102.466 61.0029L102.828 61.6598C104.286 60.8564 105.765 60.0871 107.263 59.3528L106.933 58.6794C108.438 57.9416 109.963 57.2389 111.506 56.5723L111.804 57.2609C113.331 56.6012 114.876 55.9771 116.439 55.3897L116.175 54.6876C117.743 54.0983 119.328 53.5455 120.929 53.0302L121.159 53.7442C122.741 53.235 124.339 52.7628 125.952 52.3284L125.757 51.6042C127.373 51.1691 129.003 50.7717 130.648 50.4129L130.808 51.1456C132.43 50.7917 134.066 50.4757 135.715 50.1984L135.591 49.4588C137.239 49.1816 138.9 48.9428 140.573 48.7434L140.662 49.4882C142.309 49.2918 143.968 49.134 145.637 49.0154L145.584 48.2673C147.25 48.1489 148.926 48.0695 150.612 48.0297L150.63 48.7795C151.463 48.7599 152.299 48.75 153.137 48.75C153.976 48.75 154.812 48.7599 155.645 48.7795L155.663 48.0297C157.349 48.0695 159.025 48.1489 160.691 48.2673L160.638 49.0154C162.307 49.134 163.966 49.2918 165.613 49.4882L165.702 48.7434C167.375 48.9428 169.036 49.1816 170.684 49.4588L170.56 50.1984C172.209 50.4757 173.845 50.7917 175.467 51.1456L175.627 50.4129C177.272 50.7717 178.902 51.1691 180.518 51.6042L180.323 52.3284C181.936 52.7628 183.534 53.235 185.116 53.7442L185.346 53.0302C186.947 53.5455 188.532 54.0983 190.1 54.6877L189.836 55.3897C191.399 55.9771 192.944 56.6012 194.471 57.2609L194.769 56.5724C196.312 57.2389 197.837 57.9416 199.342 58.6794L199.012 59.3528C200.51 60.0871 201.989 60.8564 203.447 61.6598L203.809 61.0029C205.28 61.8135 206.731 62.6584 208.16 63.5368L207.767 64.1758C209.187 65.0489 210.586 65.9553 211.963 66.894L212.385 66.2744C213.772 67.2202 215.136 68.1986 216.477 69.2085L216.025 69.8075C217.356 70.8104 218.664 71.8445 219.946 72.909L220.425 72.3318C221.717 73.4032 222.983 74.5051 224.224 75.6366L223.718 76.1907C224.949 77.3131 226.154 78.4648 227.333 79.6447L227.864 79.1147C229.049 80.301 230.208 81.5158 231.339 82.7579L230.784 83.2628C231.905 84.494 232.999 85.7523 234.064 87.0367L234.641 86.5578C235.711 87.848 236.753 89.1643 237.766 90.5058L237.167 90.9576C238.169 92.2861 239.143 93.6395 240.087 95.0169L240.705 94.593C241.652 95.9752 242.569 97.3813 243.455 98.8104L242.817 99.2056C243.694 100.62 244.54 102.056 245.355 103.515L246.009 103.149C246.826 104.611 247.611 106.095 248.364 107.599L247.693 107.935C248.437 109.422 249.149 110.929 249.829 112.456L250.514 112.152C251.195 113.681 251.842 115.23 252.457 116.797L251.758 117.07C252.365 118.618 252.938 120.184 253.478 121.767L254.188 121.525C254.728 123.109 255.234 124.709 255.705 126.326L254.985 126.536C255.45 128.132 255.882 129.743 256.278 131.369L257.007 131.191C257.403 132.816 257.764 134.456 258.091 136.11L257.355 136.255C257.676 137.883 257.963 139.525 258.215 141.18L258.956 141.068C259.207 142.719 259.423 144.383 259.604 146.059L258.858 146.139C259.035 147.788 259.178 149.449 259.285 151.121L260.034 151.073Z" stroke="black" stroke-opacity="0.17" stroke-width="1.5" stroke-linejoin="round" stroke-dasharray="5 5"/>
<g filter="url(#filter0_dddd_98_49)">
<path d="M218.943 212.746C216.76 204.181 208.381 199.098 200.234 201.393C192.079 203.688 187.245 212.496 189.427 221.064C191.61 229.638 199.989 234.721 208.143 232.426C216.292 230.13 221.133 221.321 218.943 212.746ZM199.168 197.235C199.953 197.015 200.737 196.855 201.516 196.742C203.324 186.653 201.076 176.162 195.667 166.496C195.752 167.958 195.73 169.45 195.609 170.966C193.635 195.288 165.136 216.458 131.953 218.254C114.18 219.208 98.6696 214.413 88.4037 206.013C97.1496 215.693 109.325 223.722 123.725 228.411C147.096 236.015 170.35 232.856 185.401 221.866C182.828 211.119 188.951 200.113 199.168 197.235Z" fill="#90E0EF"/>
<path d="M149.495 85.972C137.147 89.093 124.446 96.1609 113.388 106.932C95.4352 124.406 86.4156 147.152 87.9356 166.353C98.0792 169.391 104.08 180.464 101.342 191.206C101.134 192.032 100.874 192.818 100.579 193.591C107.985 200.272 117.754 203.476 128.416 203.385C127.17 202.727 125.952 201.969 124.763 201.098C105.716 187.138 102.531 150.606 117.638 119.498C125.736 102.841 137.443 91.1159 149.495 85.972ZM86.5885 170.421C78.4334 168.118 70.0551 173.209 67.8721 181.774C65.6893 190.349 70.5233 199.159 78.6783 201.445C86.8263 203.749 95.2045 198.659 97.3876 190.092C99.5776 181.526 94.7363 172.716 86.5885 170.421Z" fill="#00B4D8"/>
<path d="M218.634 158.257C213.209 133.177 198.98 113.589 182.404 105.371C174.833 113.089 162.707 113.02 155.223 105.151C154.653 104.552 154.127 103.917 153.645 103.265C144.431 106.667 136.909 113.953 131.657 123.717C132.818 122.905 134.057 122.178 135.369 121.536C156.39 111.174 188.081 126.534 206.149 155.847C215.823 171.549 219.627 188.07 217.842 201.612C221.443 188.804 221.969 173.709 218.634 158.257ZM179.732 102.113C185.696 95.8349 185.696 85.6693 179.732 79.3896C173.766 73.1187 164.091 73.1187 158.119 79.3896C152.153 85.6693 152.153 95.8349 158.119 102.113C164.084 108.386 173.766 108.386 179.732 102.113Z" fill="#0077B6"/>
</g>
<g clip-path="url(#clip0_98_49)">
<path d="M346.456 94.8015C346.146 91.7841 344.819 89.4401 342.472 87.7693C340.126 86.0986 336.942 85.2633 332.921 85.2633C330.188 85.2633 327.881 85.6373 325.999 86.3854C324.117 87.1086 322.673 88.1185 321.667 89.4152C320.688 90.7119 320.198 92.1832 320.198 93.8289C320.146 95.2005 320.443 96.3974 321.087 97.4198C321.758 98.4422 322.673 99.3275 323.833 100.076C324.993 100.799 326.334 101.435 327.855 101.983C329.376 102.507 331 102.956 332.727 103.33L339.843 104.976C343.297 105.724 346.468 106.721 349.356 107.968C352.243 109.215 354.744 110.748 356.858 112.569C358.972 114.389 360.609 116.534 361.769 119.002C362.955 121.471 363.561 124.301 363.587 127.493C363.561 132.181 362.324 136.246 359.874 139.687C357.451 143.104 353.945 145.759 349.356 147.655C344.793 149.525 339.289 150.46 332.843 150.46C326.45 150.46 320.881 149.512 316.137 147.617C311.42 145.722 307.733 142.917 305.078 139.201C302.448 135.461 301.069 130.835 300.94 125.324H317.143C317.323 127.892 318.084 130.037 319.425 131.758C320.791 133.453 322.608 134.737 324.877 135.61C327.172 136.458 329.763 136.882 332.65 136.882C335.486 136.882 337.948 136.483 340.036 135.685C342.15 134.887 343.787 133.777 344.947 132.356C346.108 130.935 346.688 129.301 346.688 127.456C346.688 125.735 346.159 124.289 345.102 123.117C344.071 121.945 342.55 120.947 340.539 120.125C338.554 119.302 336.118 118.554 333.23 117.88L324.606 115.786C317.929 114.215 312.657 111.758 308.79 108.417C304.923 105.075 303.002 100.574 303.028 94.9137C303.002 90.2755 304.278 86.2233 306.856 82.7571C309.46 79.2909 313.031 76.5853 317.568 74.6402C322.106 72.6952 327.262 71.7227 333.037 71.7227C338.915 71.7227 344.045 72.6952 348.428 74.6402C352.836 76.5853 356.265 79.2909 358.714 82.7571C361.164 86.2233 362.427 90.2381 362.504 94.8015H346.456ZM394.845 150.497C388.837 150.497 383.643 149.263 379.26 146.794C374.903 144.301 371.539 140.834 369.167 136.396C366.795 131.932 365.609 126.758 365.609 120.873C365.609 114.938 366.795 109.751 369.167 105.312C371.539 100.849 374.903 97.3824 379.26 94.9137C383.643 92.42 388.837 91.1732 394.845 91.1732C400.851 91.1732 406.033 92.42 410.39 94.9137C414.773 97.3824 418.151 100.849 420.522 105.312C422.894 109.751 424.08 114.938 424.08 120.873C424.08 126.758 422.894 131.932 420.522 136.396C418.151 140.834 414.773 144.301 410.39 146.794C406.033 149.263 400.851 150.497 394.845 150.497ZM394.922 138.154C397.655 138.154 399.936 137.406 401.766 135.909C403.597 134.388 404.976 132.319 405.904 129.7C406.859 127.082 407.335 124.102 407.335 120.76C407.335 117.419 406.859 114.439 405.904 111.821C404.976 109.202 403.597 107.133 401.766 105.612C399.936 104.09 397.655 103.33 394.922 103.33C392.163 103.33 389.843 104.09 387.961 105.612C386.105 107.133 384.7 109.202 383.746 111.821C382.818 114.439 382.354 117.419 382.354 120.76C382.354 124.102 382.818 127.082 383.746 129.7C384.7 132.319 386.105 134.388 387.961 135.909C389.843 137.406 392.163 138.154 394.922 138.154ZM466.349 124.912V91.9213H482.823V149.375H467.006V138.939H466.387C465.047 142.306 462.817 145.011 459.697 147.056C456.603 149.101 452.827 150.123 448.367 150.123C444.397 150.123 440.903 149.251 437.887 147.505C434.87 145.759 432.511 143.278 430.81 140.061C429.135 136.845 428.283 132.992 428.257 128.503V91.9213H444.732V125.661C444.758 129.052 445.698 131.733 447.555 133.703C449.411 135.673 451.899 136.658 455.018 136.658C457.003 136.658 458.859 136.221 460.586 135.348C462.314 134.451 463.706 133.129 464.763 131.383C465.846 129.638 466.374 127.481 466.349 124.912ZM521.061 91.9213V103.891H485.29V91.9213H521.061ZM493.41 78.1563H509.885V131.72C509.885 133.191 510.116 134.338 510.581 135.161C511.045 135.959 511.689 136.52 512.514 136.845C513.365 137.169 514.344 137.331 515.453 137.331C516.226 137.331 517 137.268 517.773 137.144C518.547 136.994 519.14 136.882 519.552 136.807L522.143 148.665C521.318 148.914 520.158 149.201 518.662 149.525C517.168 149.874 515.35 150.086 513.21 150.161C509.24 150.31 505.759 149.799 502.768 148.627C499.804 147.455 497.497 145.635 495.847 143.166C494.196 140.697 493.384 137.58 493.41 133.815V78.1563ZM543.007 116.16V149.375H526.534V72.77H542.544V102.058H543.24C544.58 98.6666 546.746 96.0109 549.737 94.0908C552.727 92.1458 556.478 91.1732 560.989 91.1732C565.115 91.1732 568.711 92.046 571.779 93.7915C574.872 95.5122 577.27 97.9934 578.972 101.235C580.699 104.452 581.55 108.305 581.524 112.793V149.375H565.05V115.636C565.076 112.095 564.148 109.34 562.266 107.369C560.41 105.4 557.806 104.415 554.455 104.415C552.211 104.415 550.226 104.876 548.499 105.799C546.797 106.721 545.457 108.068 544.477 109.838C543.524 111.584 543.033 113.691 543.007 116.16ZM615.024 150.497C608.915 150.497 603.655 149.3 599.247 146.906C594.864 144.488 591.487 141.071 589.115 136.658C586.743 132.219 585.557 126.97 585.557 120.91C585.557 115 586.743 109.813 589.115 105.35C591.487 100.886 594.826 97.4074 599.131 94.9137C603.462 92.42 608.541 91.1732 614.367 91.1732C618.286 91.1732 621.934 91.7841 625.311 93.0061C628.714 94.203 631.679 96.0109 634.206 98.4298C636.757 100.849 638.742 103.891 640.161 107.557C641.579 111.197 642.288 115.461 642.288 120.349V124.725H592.132V114.85H626.781C626.781 112.556 626.265 110.524 625.234 108.753C624.202 106.983 622.771 105.599 620.941 104.602C619.136 103.579 617.036 103.068 614.637 103.068C612.137 103.068 609.92 103.629 607.986 104.751C606.078 105.848 604.584 107.332 603.501 109.202C602.418 111.048 601.864 113.105 601.838 115.374V124.763C601.838 127.606 602.379 130.062 603.462 132.132C604.571 134.201 606.13 135.797 608.141 136.919C610.152 138.042 612.537 138.603 615.295 138.603C617.126 138.603 618.801 138.353 620.322 137.855C621.843 137.356 623.145 136.608 624.228 135.61C625.311 134.613 626.136 133.391 626.703 131.945L641.94 132.917C641.166 136.458 639.581 139.55 637.183 142.193C634.811 144.812 631.743 146.857 627.979 148.328C624.241 149.774 619.923 150.497 615.024 150.497ZM663.442 150.46C659.652 150.46 656.275 149.824 653.311 148.552C650.346 147.256 648 145.348 646.273 142.829C644.571 140.286 643.72 137.119 643.72 133.328C643.72 130.137 644.326 127.456 645.538 125.286C646.749 123.117 648.399 121.371 650.487 120.05C652.576 118.728 654.948 117.731 657.603 117.057C660.284 116.384 663.094 115.91 666.033 115.636C669.488 115.287 672.272 114.963 674.386 114.663C676.5 114.339 678.034 113.865 678.988 113.242C679.942 112.619 680.419 111.696 680.419 110.474V110.25C680.419 107.881 679.645 106.048 678.098 104.751C676.578 103.454 674.412 102.806 671.602 102.806C668.637 102.806 666.278 103.442 664.525 104.714C662.772 105.961 661.612 107.532 661.045 109.427L645.808 108.23C646.581 104.739 648.102 101.721 650.371 99.1779C652.64 96.6094 655.567 94.6394 659.15 93.2678C662.759 91.8714 666.936 91.1732 671.679 91.1732C674.979 91.1732 678.138 91.5473 681.153 92.2954C684.196 93.0435 686.89 94.203 689.236 95.774C691.608 97.345 693.477 99.3649 694.843 101.834C696.21 104.277 696.893 107.207 696.893 110.624V149.375H681.27V141.408H680.805C679.852 143.203 678.576 144.787 676.978 146.158C675.378 147.505 673.458 148.565 671.215 149.338C668.972 150.086 666.381 150.46 663.442 150.46ZM668.16 139.463C670.583 139.463 672.724 139.002 674.579 138.079C676.436 137.131 677.892 135.86 678.95 134.264C680.006 132.668 680.535 130.86 680.535 128.84V122.743C680.019 123.067 679.311 123.366 678.408 123.641C677.531 123.89 676.539 124.127 675.431 124.351C674.322 124.551 673.213 124.738 672.105 124.912C670.996 125.062 669.991 125.199 669.088 125.324C667.154 125.598 665.466 126.035 664.022 126.633C662.579 127.231 661.457 128.042 660.658 129.064C659.859 130.062 659.46 131.309 659.46 132.805C659.46 134.974 660.272 136.633 661.896 137.78C663.545 138.902 665.633 139.463 668.16 139.463ZM752.561 108.305L737.479 109.202C737.222 107.956 736.667 106.833 735.817 105.836C734.966 104.813 733.844 104.003 732.453 103.405C731.086 102.781 729.449 102.469 727.541 102.469C724.989 102.469 722.836 102.993 721.083 104.04C719.33 105.063 718.454 106.434 718.454 108.155C718.454 109.527 719.021 110.686 720.155 111.634C721.29 112.581 723.236 113.342 725.994 113.915L736.745 116.01C742.519 117.157 746.825 119.002 749.661 121.546C752.497 124.09 753.915 127.431 753.915 131.571C753.915 135.336 752.768 138.64 750.473 141.483C748.204 144.326 745.085 146.545 741.115 148.141C737.171 149.712 732.62 150.497 727.464 150.497C719.6 150.497 713.336 148.914 708.669 145.747C704.029 142.555 701.309 138.216 700.51 132.73L716.713 131.907C717.203 134.226 718.389 135.997 720.271 137.219C722.153 138.416 724.563 139.014 727.503 139.014C730.39 139.014 732.71 138.478 734.464 137.406C736.242 136.308 737.145 134.9 737.171 133.179C737.145 131.733 736.513 130.548 735.276 129.625C734.038 128.678 732.13 127.955 729.552 127.456L719.266 125.474C713.465 124.351 709.147 122.406 706.31 119.638C703.501 116.87 702.095 113.342 702.095 109.053C702.095 105.362 703.127 102.183 705.189 99.5145C707.278 96.8463 710.203 94.789 713.968 93.3426C717.758 91.8964 722.192 91.1732 727.27 91.1732C734.772 91.1732 740.677 92.7068 744.982 95.774C749.313 98.8412 751.839 103.018 752.561 108.305ZM789.349 91.9213V103.891H753.578V91.9213H789.349ZM761.699 78.1563H778.173V131.72C778.173 133.191 778.405 134.338 778.869 135.161C779.333 135.959 779.978 136.52 780.803 136.845C781.653 137.169 782.633 137.331 783.741 137.331C784.515 137.331 785.288 137.268 786.061 137.144C786.835 136.994 787.428 136.882 787.841 136.807L790.432 148.665C789.606 148.914 788.447 149.201 786.952 149.525C785.456 149.874 783.638 150.086 781.499 150.161C777.528 150.31 774.048 149.799 771.058 148.627C768.092 147.455 765.785 145.635 764.135 143.166C762.485 140.697 761.673 137.58 761.699 133.815V78.1563ZM325.908 213.201H333.942L340.677 221.771L342.449 224.057L352.491 236.97H344.457L337.841 228.399L336.187 226.228L325.908 213.201ZM354.972 202.23C354.972 208.401 353.82 213.734 351.516 218.228C349.213 222.724 346.052 226.19 342.035 228.627C338.018 231.066 333.43 232.284 328.271 232.284C323.112 232.284 318.524 231.066 314.507 228.627C310.491 226.19 307.33 222.724 305.026 218.228C302.723 213.734 301.571 208.401 301.571 202.23C301.571 196.059 302.723 190.726 305.026 186.232C307.33 181.736 310.491 178.27 314.507 175.832C318.524 173.394 323.112 172.175 328.271 172.175C333.43 172.175 338.018 173.394 342.035 175.832C346.052 178.27 349.213 181.736 351.516 186.232C353.82 190.726 354.972 196.059 354.972 202.23ZM347.883 202.23C347.883 197.164 347.007 192.887 345.255 189.402C343.522 185.917 341.169 183.279 338.195 181.488C335.242 179.698 331.934 178.804 328.271 178.804C324.609 178.804 321.291 179.698 318.318 181.488C315.364 183.279 313.011 185.917 311.258 189.402C309.526 192.887 308.659 197.164 308.659 202.23C308.659 207.296 309.526 211.572 311.258 215.058C313.011 218.543 315.364 221.18 318.318 222.971C321.291 224.762 324.609 225.656 328.271 225.656C331.934 225.656 335.242 224.762 338.195 222.971C341.169 221.18 343.522 218.543 345.255 215.058C347.007 211.572 347.883 207.296 347.883 202.23ZM397.43 213.543V187.603H404.4V231.485H397.43V224.057H396.957C395.894 226.285 394.24 228.18 391.995 229.742C389.75 231.285 386.915 232.056 383.489 232.056C380.653 232.056 378.133 231.456 375.927 230.256C373.722 229.037 371.989 227.209 370.729 224.771C369.469 222.314 368.839 219.219 368.839 215.486V187.603H375.809V215.029C375.809 218.228 376.735 220.78 378.586 222.686C380.456 224.59 382.839 225.542 385.733 225.542C387.466 225.542 389.228 225.114 391.02 224.256C392.832 223.4 394.348 222.085 395.569 220.314C396.809 218.543 397.43 216.286 397.43 213.543ZM433.013 232.513C430.138 232.513 427.529 231.99 425.186 230.942C422.843 229.876 420.982 228.342 419.603 226.342C418.225 224.324 417.536 221.885 417.536 219.029C417.536 216.514 418.048 214.476 419.071 212.915C420.096 211.334 421.465 210.095 423.177 209.201C424.89 208.306 426.781 207.639 428.848 207.201C430.935 206.744 433.033 206.381 435.139 206.115C437.896 205.773 440.131 205.516 441.844 205.344C443.577 205.153 444.837 204.839 445.625 204.401C446.432 203.963 446.836 203.201 446.836 202.115V201.887C446.836 199.068 446.039 196.878 444.444 195.316C442.868 193.754 440.475 192.974 437.266 192.974C433.938 192.974 431.33 193.678 429.439 195.088C427.548 196.497 426.219 198.001 425.452 199.601L418.836 197.316C420.017 194.65 421.592 192.574 423.561 191.088C425.55 189.583 427.716 188.536 430.059 187.945C432.422 187.335 434.746 187.031 437.03 187.031C438.487 187.031 440.161 187.203 442.051 187.545C443.961 187.869 445.802 188.546 447.574 189.574C449.366 190.602 450.852 192.154 452.034 194.23C453.216 196.306 453.806 199.087 453.806 202.573V231.485H446.836V225.542H446.481C446.009 226.494 445.222 227.513 444.119 228.599C443.016 229.685 441.549 230.609 439.717 231.37C437.887 232.132 435.651 232.513 433.013 232.513ZM434.076 226.457C436.833 226.457 439.157 225.933 441.047 224.885C442.957 223.838 444.394 222.486 445.359 220.829C446.344 219.171 446.836 217.429 446.836 215.6V209.429C446.54 209.772 445.89 210.086 444.886 210.372C443.902 210.639 442.76 210.877 441.461 211.087C440.18 211.277 438.93 211.448 437.709 211.601C436.508 211.734 435.533 211.848 434.785 211.943C432.973 212.171 431.28 212.543 429.705 213.057C428.149 213.552 426.889 214.305 425.924 215.315C424.979 216.305 424.507 217.657 424.507 219.371C424.507 221.714 425.402 223.485 427.194 224.685C429.006 225.866 431.3 226.457 434.076 226.457ZM475.995 172.975V231.485H469.025V172.975H475.995ZM491.257 231.485V187.603H498.227V231.485H491.257ZM494.802 180.289C493.443 180.289 492.271 179.841 491.287 178.946C490.321 178.05 489.84 176.975 489.84 175.717C489.84 174.461 490.321 173.384 491.287 172.489C492.271 171.595 493.443 171.147 494.802 171.147C496.16 171.147 497.322 171.595 498.286 172.489C499.271 173.384 499.764 174.461 499.764 175.717C499.764 176.975 499.271 178.05 498.286 178.946C497.322 179.841 496.16 180.289 494.802 180.289ZM533.22 187.603V193.316H509.71V187.603H533.22ZM516.562 177.089H523.532V218.914C523.532 220.819 523.817 222.247 524.389 223.2C524.979 224.133 525.728 224.762 526.633 225.085C527.559 225.39 528.533 225.542 529.557 225.542C530.326 225.542 530.956 225.504 531.448 225.428C531.94 225.333 532.334 225.257 532.63 225.199L534.047 231.256C533.574 231.427 532.915 231.599 532.068 231.77C531.222 231.961 530.148 232.056 528.849 232.056C526.879 232.056 524.95 231.646 523.059 230.828C521.189 230.008 519.633 228.761 518.393 227.085C517.172 225.408 516.562 223.294 516.562 220.742V177.089ZM550.69 247.94C549.509 247.94 548.455 247.845 547.53 247.654C546.605 247.483 545.964 247.312 545.61 247.14L547.382 241.198C549.076 241.617 550.572 241.77 551.872 241.655C553.171 241.541 554.323 240.979 555.327 239.969C556.351 238.979 557.287 237.37 558.133 235.141L559.433 231.713L542.656 187.603H550.218L562.741 222.571H563.214L575.737 187.603H583.298L564.04 237.884C563.174 240.151 562.101 242.027 560.821 243.512C559.541 245.017 558.054 246.131 556.361 246.855C554.687 247.579 552.797 247.94 550.69 247.94ZM669.794 172.975V231.485H662.705L629.742 185.546H629.152V231.485H621.827V172.975H628.916L661.996 219.029H662.587V172.975H669.794ZM705.023 232.399C700.651 232.399 696.88 231.465 693.71 229.599C690.56 227.713 688.128 225.085 686.415 221.714C684.721 218.324 683.874 214.381 683.874 209.886C683.874 205.391 684.721 201.43 686.415 198.001C688.128 194.554 690.51 191.869 693.563 189.945C696.634 188.002 700.218 187.031 704.313 187.031C706.677 187.031 709.01 187.412 711.314 188.174C713.618 188.935 715.714 190.174 717.605 191.888C719.495 193.583 721.001 195.83 722.124 198.63C723.246 201.43 723.807 204.877 723.807 208.972V211.829H688.836V206.001H716.718C716.718 203.525 716.206 201.316 715.183 199.373C714.179 197.43 712.741 195.897 710.87 194.773C709.019 193.65 706.834 193.088 704.313 193.088C701.537 193.088 699.135 193.754 697.106 195.088C695.098 196.401 693.552 198.116 692.469 200.23C691.386 202.344 690.845 204.611 690.845 207.029V210.915C690.845 214.229 691.436 217.038 692.617 219.342C693.818 221.628 695.482 223.371 697.609 224.571C699.735 225.752 702.207 226.342 705.023 226.342C706.853 226.342 708.507 226.094 709.985 225.599C711.481 225.085 712.771 224.324 713.854 223.313C714.937 222.285 715.773 221.009 716.364 219.486L723.099 221.314C722.39 223.523 721.199 225.466 719.525 227.142C717.851 228.799 715.784 230.095 713.322 231.028C710.861 231.942 708.094 232.399 705.023 232.399ZM756.637 187.603V193.316H733.125V187.603H756.637ZM739.978 177.089H746.948V218.914C746.948 220.819 747.234 222.247 747.805 223.2C748.396 224.133 749.144 224.762 750.05 225.085C750.975 225.39 751.95 225.542 752.974 225.542C753.742 225.542 754.372 225.504 754.864 225.428C755.357 225.333 755.75 225.257 756.046 225.199L757.463 231.256C756.991 231.427 756.331 231.599 755.484 231.77C754.638 231.961 753.564 232.056 752.265 232.056C750.296 232.056 748.366 231.646 746.476 230.828C744.606 230.008 743.049 228.761 741.809 227.085C740.588 225.408 739.978 223.294 739.978 220.742V177.089ZM779.895 231.485L766.072 187.603H773.398L783.203 221.199H783.676L793.364 187.603H800.807L810.377 221.086H810.85L820.656 187.603H827.98L814.157 231.485H807.305L797.381 197.773H796.672L786.748 231.485H779.895ZM856.578 232.399C852.482 232.399 848.889 231.456 845.797 229.57C842.726 227.685 840.323 225.047 838.59 221.657C836.877 218.267 836.021 214.305 836.021 209.772C836.021 205.201 836.877 201.211 838.59 197.801C840.323 194.393 842.726 191.745 845.797 189.859C848.889 187.974 852.482 187.031 856.578 187.031C860.674 187.031 864.258 187.974 867.329 189.859C870.421 191.745 872.823 194.393 874.536 197.801C876.269 201.211 877.135 205.201 877.135 209.772C877.135 214.305 876.269 218.267 874.536 221.657C872.823 225.047 870.421 227.685 867.329 229.57C864.258 231.456 860.674 232.399 856.578 232.399ZM856.578 226.342C859.689 226.342 862.249 225.571 864.258 224.028C866.266 222.486 867.753 220.457 868.717 217.943C869.682 215.428 870.165 212.705 870.165 209.772C870.165 206.839 869.682 204.106 868.717 201.573C867.753 199.04 866.266 196.992 864.258 195.43C862.249 193.869 859.689 193.088 856.578 193.088C853.467 193.088 850.907 193.869 848.899 195.43C846.891 196.992 845.404 199.04 844.439 201.573C843.474 204.106 842.992 206.839 842.992 209.772C842.992 212.705 843.474 215.428 844.439 217.943C845.404 220.457 846.891 222.486 848.899 224.028C850.907 225.571 853.467 226.342 856.578 226.342ZM890.272 231.485V187.603H897.005V194.23H897.478C898.305 192.059 899.801 190.297 901.967 188.945C904.133 187.593 906.575 186.917 909.293 186.917C909.805 186.917 910.444 186.927 911.213 186.946C911.98 186.965 912.561 186.993 912.955 187.031V193.888C912.718 193.83 912.177 193.745 911.331 193.63C910.503 193.497 909.627 193.431 908.702 193.431C906.496 193.431 904.527 193.878 902.795 194.773C901.082 195.649 899.722 196.868 898.718 198.43C897.734 199.973 897.242 201.734 897.242 203.715V231.485H890.272ZM930.21 215.486L930.093 207.144H931.51L951.359 187.603H959.983L938.836 208.287H938.245L930.21 215.486ZM923.713 231.485V172.975H930.684V231.485H923.713ZM952.541 231.485L934.818 209.772L939.781 205.087L961.401 231.485H952.541Z" fill="url(#paint0_linear_98_49)"/>
</g>
<defs>
<filter id="filter0_dddd_98_49" x="0.347992" y="69.6864" width="225.514" height="229.291" filterUnits="userSpaceOnUse" color-interpolation-filters="sRGB">
<feFlood flood-opacity="0" result="BackgroundImageFix"/>
<feColorMatrix in="SourceAlpha" type="matrix" values="0 0 0 0 0 0 0 0 0 0 0 0 0 0 0 0 0 0 127 0" result="hardAlpha"/>
<feOffset dx="-3" dy="3"/>
<feGaussianBlur stdDeviation="4"/>
<feColorMatrix type="matrix" values="0 0 0 0 0.34902 0 0 0 0 0.34902 0 0 0 0 0.34902 0 0 0 0.1 0"/>
<feBlend mode="normal" in2="BackgroundImageFix" result="effect1_dropShadow_98_49"/>
<feColorMatrix in="SourceAlpha" type="matrix" values="0 0 0 0 0 0 0 0 0 0 0 0 0 0 0 0 0 0 127 0" result="hardAlpha"/>
<feOffset dx="-11" dy="10"/>
<feGaussianBlur stdDeviation="7.5"/>
<feColorMatrix type="matrix" values="0 0 0 0 0.34902 0 0 0 0 0.34902 0 0 0 0 0.34902 0 0 0 0.09 0"/>
<feBlend mode="normal" in2="effect1_dropShadow_98_49" result="effect2_dropShadow_98_49"/>
<feColorMatrix in="SourceAlpha" type="matrix" values="0 0 0 0 0 0 0 0 0 0 0 0 0 0 0 0 0 0 127 0" result="hardAlpha"/>
<feOffset dx="-24" dy="24"/>
<feGaussianBlur stdDeviation="10"/>
<feColorMatrix type="matrix" values="0 0 0 0 0.34902 0 0 0 0 0.34902 0 0 0 0 0.34902 0 0 0 0.05 0"/>
<feBlend mode="normal" in2="effect2_dropShadow_98_49" result="effect3_dropShadow_98_49"/>
<feColorMatrix in="SourceAlpha" type="matrix" values="0 0 0 0 0 0 0 0 0 0 0 0 0 0 0 0 0 0 127 0" result="hardAlpha"/>
<feOffset dx="-43" dy="42"/>
<feGaussianBlur stdDeviation="12"/>
<feColorMatrix type="matrix" values="0 0 0 0 0.34902 0 0 0 0 0.34902 0 0 0 0 0.34902 0 0 0 0.01 0"/>
<feBlend mode="normal" in2="effect3_dropShadow_98_49" result="effect4_dropShadow_98_49"/>
<feBlend mode="normal" in="SourceGraphic" in2="effect4_dropShadow_98_49" result="shape"/>
</filter>
<linearGradient id="paint0_linear_98_49" x1="685.081" y1="-24.6203" x2="665.574" y2="227.608" gradientUnits="userSpaceOnUse">
<stop offset="0.16" stop-color="#90E0EF"/>
<stop offset="0.366155" stop-color="#00B4D8"/>
<stop offset="0.61" stop-color="#0077B6"/>
</linearGradient>
<clipPath id="clip0_98_49">
<rect width="661.104" height="176.659" fill="white" transform="translate(300.896 71.4128)"/>
</clipPath>
</defs>
</svg>
