<svg width="987" height="318" viewBox="0 0 987 318" fill="none" xmlns="http://www.w3.org/2000/svg">
<path d="M309.778 157.473C304.592 155.963 300.43 154.005 297.293 151.599L302.814 139.339C305.821 141.549 309.396 143.32 313.548 144.663C317.691 146.005 321.843 146.677 325.986 146.677C330.604 146.677 334.011 145.987 336.218 144.616C338.424 143.246 339.523 141.419 339.523 139.144C339.523 137.475 338.871 136.076 337.568 134.976C336.264 133.876 334.589 132.981 332.55 132.31C330.511 131.638 327.755 130.902 324.273 130.1C318.92 128.832 314.544 127.555 311.137 126.287C307.729 125.019 304.797 122.977 302.357 120.162C299.918 117.346 298.699 113.598 298.699 108.909C298.699 104.825 299.797 101.124 302.004 97.8047C304.21 94.4857 307.534 91.8658 311.984 89.9173C316.434 87.9781 321.862 86.9991 328.286 86.9991C332.764 86.9991 337.149 87.5399 341.432 88.6027C345.714 89.6749 349.457 91.2132 352.669 93.227L347.651 105.58C341.162 101.898 334.672 100.052 328.193 100.052C323.649 100.052 320.288 100.788 318.11 102.261C315.941 103.734 314.851 105.673 314.851 108.088C314.851 110.503 316.108 112.293 318.613 113.468C321.117 114.642 324.953 115.798 330.101 116.936C335.445 118.213 339.83 119.481 343.238 120.749C346.645 122.026 349.578 124.031 352.017 126.772C354.456 129.522 355.676 133.233 355.676 137.922C355.676 141.941 354.559 145.605 352.315 148.924C350.071 152.243 346.71 154.872 342.232 156.811C337.754 158.75 332.298 159.72 325.884 159.72C320.335 159.72 314.963 158.965 309.787 157.464L309.778 157.473Z" fill="#4496D2"/>
<path d="M382.005 155.012C376.149 151.86 371.578 147.525 368.264 142.006C364.949 136.477 363.302 130.268 363.302 123.369C363.302 116.47 364.959 110.26 368.264 104.732C371.578 99.2031 376.149 94.8679 382.005 91.7259C387.861 88.5747 394.425 87.0084 401.715 87.0084C409.004 87.0084 415.559 88.584 421.377 91.7259C427.196 94.8772 431.777 99.2125 435.119 104.732C438.461 110.26 440.137 116.47 440.137 123.369C440.137 130.268 438.461 136.477 435.119 142.006C431.777 147.525 427.196 151.87 421.377 155.012C415.559 158.163 409.004 159.729 401.715 159.729C394.425 159.729 387.852 158.154 382.005 155.012ZM412.952 143.013C416.294 141.101 418.919 138.444 420.828 135.023C422.737 131.61 423.686 127.723 423.686 123.369C423.686 119.015 422.737 115.136 420.828 111.715C418.919 108.303 416.294 105.636 412.952 103.725C409.609 101.814 405.858 100.863 401.715 100.863C397.572 100.863 393.82 101.814 390.477 103.725C387.135 105.636 384.51 108.293 382.601 111.715C380.693 115.127 379.743 119.015 379.743 123.369C379.743 127.723 380.693 131.61 382.601 135.023C384.51 138.435 387.135 141.101 390.477 143.013C393.82 144.924 397.562 145.875 401.715 145.875C405.867 145.875 409.6 144.924 412.952 143.013Z" fill="#4496D2"/>
<path d="M461.047 151.394C455.461 145.838 452.668 137.904 452.668 127.583V88.2018H468.923V126.977C468.923 139.572 474.137 145.866 484.574 145.866C489.657 145.866 493.53 144.346 496.211 141.297C498.883 138.249 500.224 133.475 500.224 126.986V88.2111H516.274V127.592C516.274 137.904 513.481 145.838 507.895 151.404C502.309 156.96 494.507 159.738 484.471 159.738C474.435 159.738 466.633 156.96 461.047 151.404V151.394Z" fill="#4496D2"/>
<path d="M546.569 101.469H524.095V88.2111H585.289V101.469H562.815V158.526H546.56V101.469H546.569Z" fill="#4496D2"/>
<path d="M659.322 88.2111V158.526H643.067V129.699H611.171V158.526H594.916V88.2111H611.171V115.938H643.067V88.2111H659.322Z" fill="#4496D2"/>
<path d="M731.242 145.474V158.536H676.872V88.2203H729.939V101.282H693.024V116.553H725.628V129.214H693.024V145.493H731.242V145.474Z" fill="#4496D2"/>
<path d="M791.329 143.46H758.725L752.506 158.526H735.85L767.151 88.2111H783.201L814.594 158.526H797.538L791.319 143.46H791.329ZM786.208 131.107L775.073 104.182L763.939 131.107H786.208Z" fill="#4496D2"/>
<path d="M829.798 157.473C824.612 155.963 820.45 154.005 817.313 151.599L822.824 139.339C825.831 141.549 829.416 143.32 833.559 144.663C837.702 146.005 841.854 146.677 845.997 146.677C850.615 146.677 854.022 145.987 856.229 144.616C858.435 143.246 859.543 141.419 859.543 139.144C859.543 137.475 858.891 136.076 857.588 134.976C856.284 133.867 854.609 132.981 852.57 132.31C850.531 131.638 847.775 130.902 844.293 130.1C838.94 128.832 834.564 127.555 831.148 126.287C827.74 125.019 824.807 122.977 822.368 120.162C819.929 117.346 818.709 113.598 818.709 108.909C818.709 104.825 819.817 101.124 822.024 97.8047C824.23 94.4857 827.554 91.8658 832.004 89.9173C836.454 87.9781 841.882 86.9991 848.306 86.9991C852.784 86.9991 857.169 87.5399 861.452 88.6027C865.734 89.6749 869.477 91.2132 872.689 93.227L867.671 105.58C861.182 101.898 854.692 100.052 848.213 100.052C843.66 100.052 840.299 100.788 838.13 102.261C835.951 103.734 834.872 105.673 834.872 108.088C834.872 110.503 836.128 112.293 838.633 113.468C841.137 114.642 844.964 115.798 850.121 116.936C855.475 118.213 859.85 119.481 863.267 120.749C866.674 122.026 869.598 124.031 872.046 126.772C874.485 129.522 875.705 133.233 875.705 137.922C875.705 141.941 874.588 145.605 872.344 148.924C870.101 152.243 866.74 154.872 862.262 156.811C857.783 158.75 852.328 159.72 845.913 159.72C840.364 159.72 834.992 158.965 829.816 157.464L829.798 157.473Z" fill="#4496D2"/>
<path d="M901.27 101.469H878.796V88.2111H939.991V101.469H917.516V158.526H901.261V101.469H901.27Z" fill="#4496D2"/>
<path d="M342.754 230.073L342.68 200.052L327.979 224.786H322.766L308.13 200.705V230.082H297.284V180.054H306.846L325.549 211.147L343.965 180.054H353.461L353.6 230.082H342.754V230.073Z" fill="#4496D2"/>
<path d="M404.778 220.787V230.082H366.095V180.054H403.847V189.349H377.583V200.211H400.784V209.217H377.583V220.796H404.778V220.787Z" fill="#4496D2"/>
<path d="M414.628 180.044H437.325C442.753 180.044 447.538 181.079 451.709 183.158C455.871 185.228 459.111 188.146 461.42 191.913C463.728 195.679 464.883 200.061 464.883 205.068C464.883 210.074 463.728 214.456 461.42 218.213C459.111 221.98 455.88 224.898 451.709 226.968C447.548 229.038 442.753 230.082 437.325 230.082H414.628V180.054V180.044ZM436.748 220.572C441.748 220.572 445.732 219.174 448.702 216.395C451.672 213.608 453.162 209.832 453.162 205.068C453.162 200.304 451.672 196.528 448.702 193.74C445.732 190.952 441.748 189.563 436.748 189.563H426.181V220.581H436.748V220.572Z" fill="#4496D2"/>
<path d="M474.221 180.044H485.784V230.072H474.221V180.044Z" fill="#4496D2"/>
<path d="M508.37 227.611C504.255 225.392 501.015 222.325 498.66 218.391C496.304 214.456 495.131 210.018 495.131 205.058C495.131 200.099 496.304 195.661 498.66 191.726C501.015 187.792 504.246 184.725 508.37 182.506C512.485 180.287 517.112 179.187 522.251 179.187C526.58 179.187 530.49 179.951 533.991 181.471C537.492 183 540.424 185.191 542.808 188.044L535.387 194.906C532.008 190.999 527.818 189.041 522.828 189.041C519.737 189.041 516.972 189.722 514.552 191.074C512.131 192.426 510.232 194.327 508.882 196.752C507.523 199.185 506.843 201.945 506.843 205.04C506.843 208.135 507.523 210.904 508.882 213.328C510.241 215.761 512.131 217.654 514.552 219.006C516.972 220.358 519.737 221.048 522.828 221.048C527.828 221.048 532.008 219.071 535.387 215.118L542.808 221.98C540.424 224.889 537.473 227.098 533.954 228.627C530.435 230.156 526.506 230.912 522.177 230.912C517.084 230.912 512.485 229.802 508.361 227.593L508.37 227.611Z" fill="#4496D2"/>
<path d="M583.139 219.36H559.938L555.516 230.082H543.664L565.934 180.054H577.357L599.701 230.082H587.57L583.148 219.36H583.139ZM579.498 210.569L571.576 191.409L563.653 210.569H579.498Z" fill="#4496D2"/>
<path d="M605.548 180.044H617.111V220.637H642.164V230.072H605.548V180.044Z" fill="#4496D2"/>
<path d="M703.898 204.275H714.465V224.572C711.756 226.623 708.609 228.199 705.044 229.289C701.478 230.389 697.884 230.93 694.263 230.93C689.077 230.93 684.413 229.821 680.279 227.611C676.145 225.402 672.896 222.325 670.541 218.391C668.185 214.456 667.003 210.018 667.003 205.058C667.003 200.099 668.185 195.661 670.541 191.726C672.896 187.792 676.164 184.725 680.353 182.506C684.543 180.287 689.254 179.187 694.486 179.187C698.862 179.187 702.837 179.923 706.403 181.406C709.969 182.888 712.966 185.023 715.396 187.839L707.976 194.7C704.411 190.934 700.1 189.051 695.054 189.051C691.87 189.051 689.03 189.722 686.563 191.055C684.087 192.388 682.16 194.272 680.782 196.705C679.404 199.138 678.715 201.926 678.715 205.068C678.715 208.21 679.404 210.932 680.782 213.356C682.16 215.789 684.078 217.682 686.526 219.034C688.975 220.395 691.768 221.076 694.914 221.076C698.247 221.076 701.245 220.358 703.908 218.931V204.275H703.898Z" fill="#4496D2"/>
<path d="M757.636 230.072L748 216.134H737.368V230.072H725.805V180.044H747.432C751.854 180.044 755.699 180.781 758.958 182.263C762.216 183.746 764.73 185.834 766.49 188.556C768.249 191.269 769.134 194.486 769.134 198.206C769.134 201.926 768.24 205.124 766.452 207.818C764.665 210.512 762.133 212.573 758.855 213.999L770.065 230.082H757.645L757.636 230.072ZM754.712 191.736C752.906 190.235 750.262 189.479 746.79 189.479H737.368V206.923H746.79C750.262 206.923 752.906 206.159 754.712 204.639C756.519 203.119 757.422 200.966 757.422 198.206C757.422 195.446 756.519 193.237 754.712 191.736Z" fill="#4496D2"/>
<path d="M789.076 227.574C784.914 225.336 781.656 222.25 779.3 218.316C776.945 214.382 775.762 209.962 775.762 205.058C775.762 200.154 776.945 195.726 779.3 191.801C781.656 187.876 784.914 184.79 789.076 182.543C793.237 180.305 797.911 179.187 803.096 179.187C808.282 179.187 812.946 180.305 817.08 182.543C821.223 184.781 824.481 187.867 826.856 191.801C829.23 195.735 830.421 200.154 830.421 205.058C830.421 209.962 829.23 214.382 826.856 218.316C824.472 222.25 821.214 225.336 817.08 227.574C812.937 229.811 808.282 230.93 803.096 230.93C797.911 230.93 793.237 229.811 789.076 227.574ZM811.094 219.034C813.468 217.673 815.339 215.78 816.698 213.356C818.058 210.923 818.728 208.163 818.728 205.068C818.728 201.972 818.048 199.204 816.698 196.779C815.339 194.346 813.477 192.454 811.094 191.102C808.71 189.74 806.048 189.069 803.096 189.069C800.145 189.069 797.483 189.75 795.099 191.102C792.716 192.463 790.854 194.355 789.495 196.779C788.135 199.213 787.456 201.972 787.456 205.068C787.456 208.163 788.135 210.932 789.495 213.356C790.854 215.789 792.716 217.682 795.099 219.034C797.473 220.395 800.145 221.076 803.096 221.076C806.048 221.076 808.71 220.395 811.094 219.034Z" fill="#4496D2"/>
<path d="M845.317 225.001C841.342 221.048 839.359 215.398 839.359 208.06V180.044H850.922V207.632C850.922 216.591 854.637 221.066 862.057 221.066C865.669 221.066 868.434 219.985 870.333 217.812C872.233 215.64 873.192 212.247 873.192 207.632V180.044H884.615V208.06C884.615 215.398 882.623 221.048 878.657 225.001C874.681 228.954 869.132 230.93 861.992 230.93C854.851 230.93 849.302 228.954 845.327 225.001H845.317Z" fill="#4496D2"/>
<path d="M929.824 182.263C933.083 183.746 935.596 185.834 937.356 188.557C939.116 191.27 940 194.486 940 198.206C940 201.926 939.116 205.077 937.356 207.818C935.596 210.559 933.083 212.657 929.824 214.111C926.566 215.566 922.721 216.293 918.298 216.293H908.234V230.091H896.671V180.063H918.298C922.721 180.063 926.566 180.8 929.824 182.282V182.263ZM925.579 204.592C927.385 203.091 928.288 200.956 928.288 198.197C928.288 195.437 927.385 193.227 925.579 191.726C923.773 190.225 921.129 189.47 917.656 189.47H908.234V206.839H917.656C921.129 206.839 923.773 206.084 925.579 204.583V204.592Z" fill="#4496D2"/>
<g clip-path="url(#clip0_98_12)">
<rect x="42" y="57.3396" width="202.321" height="202.321" rx="47" fill="url(#paint0_linear_98_12)"/>
<g filter="url(#filter0_dddd_98_12)">
<path d="M210.323 131.929C197.375 131.929 183.125 137.38 169.731 146.095C154.612 155.935 140.59 169.951 130.745 185.076C122.035 198.46 116.584 212.704 116.584 225.668C116.584 226.766 117.476 227.653 118.569 227.653H157.503C164.254 227.653 169.726 222.181 169.726 215.429V185.076H200.079C206.831 185.076 212.303 179.604 212.303 172.853V133.919C212.303 132.82 211.411 131.934 210.318 131.934L210.323 131.929Z" fill="#FAFAFA"/>
<path d="M167.742 89.3526H128.808C122.056 89.3526 116.584 94.8243 116.584 101.576V131.929H86.231C79.4795 131.929 74.0078 137.401 74.0078 144.152V183.086C74.0078 184.185 74.899 185.071 75.9923 185.071C88.9409 185.071 103.19 179.62 116.584 170.905C131.704 161.065 145.725 147.049 155.57 131.924C164.28 118.54 169.731 104.296 169.731 91.3319C169.731 90.2335 168.84 89.3474 167.747 89.3474L167.742 89.3526Z" fill="#FAFAFA"/>
</g>
</g>
<defs>
<filter id="filter0_dddd_98_12" x="7.00778" y="84.3474" width="210.295" height="209.305" filterUnits="userSpaceOnUse" color-interpolation-filters="sRGB">
<feFlood flood-opacity="0" result="BackgroundImageFix"/>
<feColorMatrix in="SourceAlpha" type="matrix" values="0 0 0 0 0 0 0 0 0 0 0 0 0 0 0 0 0 0 127 0" result="hardAlpha"/>
<feOffset dx="-3" dy="3"/>
<feGaussianBlur stdDeviation="4"/>
<feColorMatrix type="matrix" values="0 0 0 0 0.34902 0 0 0 0 0.34902 0 0 0 0 0.34902 0 0 0 0.1 0"/>
<feBlend mode="normal" in2="BackgroundImageFix" result="effect1_dropShadow_98_12"/>
<feColorMatrix in="SourceAlpha" type="matrix" values="0 0 0 0 0 0 0 0 0 0 0 0 0 0 0 0 0 0 127 0" result="hardAlpha"/>
<feOffset dx="-11" dy="10"/>
<feGaussianBlur stdDeviation="7.5"/>
<feColorMatrix type="matrix" values="0 0 0 0 0.34902 0 0 0 0 0.34902 0 0 0 0 0.34902 0 0 0 0.09 0"/>
<feBlend mode="normal" in2="effect1_dropShadow_98_12" result="effect2_dropShadow_98_12"/>
<feColorMatrix in="SourceAlpha" type="matrix" values="0 0 0 0 0 0 0 0 0 0 0 0 0 0 0 0 0 0 127 0" result="hardAlpha"/>
<feOffset dx="-24" dy="24"/>
<feGaussianBlur stdDeviation="10"/>
<feColorMatrix type="matrix" values="0 0 0 0 0.34902 0 0 0 0 0.34902 0 0 0 0 0.34902 0 0 0 0.05 0"/>
<feBlend mode="normal" in2="effect2_dropShadow_98_12" result="effect3_dropShadow_98_12"/>
<feColorMatrix in="SourceAlpha" type="matrix" values="0 0 0 0 0 0 0 0 0 0 0 0 0 0 0 0 0 0 127 0" result="hardAlpha"/>
<feOffset dx="-43" dy="42"/>
<feGaussianBlur stdDeviation="12"/>
<feColorMatrix type="matrix" values="0 0 0 0 0.34902 0 0 0 0 0.34902 0 0 0 0 0.34902 0 0 0 0.01 0"/>
<feBlend mode="normal" in2="effect3_dropShadow_98_12" result="effect4_dropShadow_98_12"/>
<feBlend mode="normal" in="SourceGraphic" in2="effect4_dropShadow_98_12" result="shape"/>
</filter>
<linearGradient id="paint0_linear_98_12" x1="42" y1="259.66" x2="244.321" y2="57.3396" gradientUnits="userSpaceOnUse">
<stop stop-color="#006DBD"/>
<stop offset="1" stop-color="#68BBE9"/>
</linearGradient>
<clipPath id="clip0_98_12">
<rect x="42" y="57.3396" width="202.321" height="202.321" rx="47" fill="white"/>
</clipPath>
</defs>
</svg>
