<svg width="987" height="318" viewBox="0 0 987 318" fill="none" xmlns="http://www.w3.org/2000/svg">
<g clip-path="url(#clip0_98_107)">
<path d="M373.066 131.121H351.271L377.606 212.182H401.067L427.402 131.121H405.607L389.116 192.182L373.066 131.121Z" fill="black"/>
<path d="M69 104H91.5519V212.182H69V104Z" fill="black"/>
<path d="M113.801 104H136.353V212.182H113.801V104Z" fill="black"/>
<path d="M158.599 104H225.346V122.03H181.151V147.788H222.32V165.818H181.151V194.151H225.346V212.182H158.599V104Z" fill="black"/>
<path d="M239.118 104H260.458V212.182H239.118V104Z" fill="black"/>
<path d="M273.323 171.576C273.323 142.03 288.005 129.303 310.859 129.303C333.714 129.303 346.731 141.879 346.731 171.879V176.727H294.361C295.118 194.303 300.416 200.212 310.557 200.212C318.578 200.212 323.573 195.515 324.481 187.333H345.822C344.46 205.212 329.628 214 310.557 214C286.34 214 273.323 201.121 273.323 171.576ZM325.693 162.636C324.633 147.788 319.487 142.939 310.557 142.939C301.627 142.939 296.026 147.939 294.513 162.636H325.693Z" fill="black"/>
<path d="M431.49 171.576C431.49 142.03 446.171 129.303 469.025 129.303C491.88 129.303 504.897 141.879 504.897 171.879V176.727H452.528C453.285 194.303 458.582 200.212 468.723 200.212C476.744 200.212 481.739 195.515 482.647 187.333H503.988C502.626 205.212 487.793 214 468.723 214C444.505 214 431.49 201.121 431.49 171.576ZM483.858 162.636C482.798 147.788 477.653 142.939 468.723 142.939C459.793 142.939 454.192 147.939 452.679 162.636H483.858Z" fill="black"/>
<path d="M605.998 104H628.55V194.151H670.929V212.182H605.998V104Z" fill="black"/>
<path fill-rule="evenodd" clip-rule="evenodd" d="M676.227 171.576C676.227 140.667 690.454 129.303 708.768 129.303C717.849 129.303 726.174 134.455 729.504 139.909V131.121H751.299V212.182H730.109V202.636C726.931 209 718.001 214 708.162 214C688.79 214 676.227 201.576 676.227 171.576ZM714.368 145.212C724.962 145.212 730.714 153.243 730.714 171.576C730.714 189.909 724.962 198.091 714.368 198.091C703.774 198.091 697.72 189.909 697.72 171.576C697.72 153.243 703.774 145.212 714.368 145.212Z" fill="black"/>
<path fill-rule="evenodd" clip-rule="evenodd" d="M788.985 202.636V212.182H767.797V104H789.137V139.909C792.77 134.303 801.246 129.303 810.327 129.303C828.187 129.303 842.414 140.667 842.414 171.576C842.414 202.485 828.49 214 809.873 214C800.036 214 792.013 209 788.985 202.636ZM804.273 145.364C814.868 145.364 820.922 153.242 820.922 171.576C820.922 189.909 814.868 198.091 804.273 198.091C793.678 198.091 787.926 189.909 787.926 171.576C787.926 153.242 793.678 145.364 804.273 145.364Z" fill="black"/>
<path d="M851.194 188.091H872.534C872.837 196.576 877.377 200.667 885.399 200.667C893.42 200.667 897.962 197.03 897.962 190.667C897.962 184.909 894.481 182.788 886.913 180.97L880.405 179.303C861.94 174.606 852.706 169.606 852.706 154.303C852.706 139 866.934 129.303 885.097 129.303C903.259 129.303 917.033 136.424 917.638 153.243H896.296C895.843 145.818 891.302 142.636 884.794 142.636C878.286 142.636 873.744 145.818 873.744 151.879C873.744 157.485 877.377 159.606 883.735 161.121L890.394 162.788C907.951 167.182 919 171.576 919 187.939C919 204.303 904.47 214 884.794 214C863.452 214 851.647 205.97 851.194 188.091Z" fill="black"/>
<path d="M539.405 164.455C539.405 151.727 545.459 144.758 554.844 144.758C562.562 144.758 566.952 149.606 566.952 160.061V212.182H588.292V156.727C588.292 137.939 577.698 129.303 562.26 129.303C551.816 129.303 543.19 134.606 539.405 141.576V131.121H517.762V212.182H539.405V164.455Z" fill="black"/>
</g>
<defs>
<clipPath id="clip0_98_107">
<rect width="850" height="110" fill="white" transform="translate(69 104)"/>
</clipPath>
</defs>
</svg>
