<svg width="987" height="318" viewBox="0 0 987 318" fill="none" xmlns="http://www.w3.org/2000/svg">
<path d="M296.224 90.981L300.367 85.8085C305.144 89.0693 311.462 90.6947 317.785 90.6947C324.877 90.6947 330.073 88.1473 330.073 83.3342C330.073 78.3023 324.174 77.3126 318.415 76.3906L317.082 76.1823C301.844 73.7028 297.908 70.02 297.908 63.0816C297.908 51.674 309.075 48.4183 318.554 48.4183C325.089 48.4183 332.041 50.7572 337.377 53.7992L333.023 58.8259C328.105 56.1433 323.544 54.9296 318.415 54.9296C309.85 54.9296 305.357 57.8414 305.357 62.6545C305.357 66.5508 308.445 68.3167 318.415 69.7335C325.161 70.7962 337.589 72.4995 337.589 83.1935C337.589 91.5435 329.934 97.2108 317.712 97.2108C308.936 97.2108 300.367 93.8146 296.224 90.981Z" fill="#4C78BB"/>
<path d="M389.498 72.7796C389.498 62.2262 381.703 54.9284 370.396 54.9284C359.156 54.9284 351.294 62.2939 351.294 72.7796C351.294 83.4059 359.156 90.6932 370.396 90.6932C381.703 90.6932 389.498 83.333 389.498 72.7796ZM343.851 72.7796C343.851 58.4028 355.086 48.4172 370.396 48.4172C385.707 48.4172 396.942 58.4028 396.942 72.7796C396.942 87.2242 385.707 97.2098 370.396 97.2098C355.086 97.2098 343.851 87.2242 343.851 72.7796Z" fill="#4C78BB"/>
<path d="M404.968 75.0427V49.2686H412.484V75.0427C412.484 86.3046 416.415 90.6956 426.173 90.6956C435.796 90.6956 439.799 86.3774 439.799 75.0427V49.2686H447.315V75.0427C447.315 87.7212 442.537 97.2123 426.173 97.2123C409.953 97.2123 404.968 88.0027 404.968 75.0427Z" fill="#4C78BB"/>
<path d="M478.302 55.7115V96.3625H470.998V55.7115H453.864V49.2681H495.508V55.7115H478.302Z" fill="#4C78BB"/>
<path d="M545.31 96.3615H538.006V75.7545H509.918V96.3615H502.687V49.2668H509.918V69.3787H538.006V49.2668H545.31V96.3615Z" fill="#4C78BB"/>
<path d="M594.143 96.3615H557.691V49.2668H593.507V55.7104H564.922V69.3787H589.573V75.7545H564.922V89.9177H594.143V96.3615Z" fill="#4C78BB"/>
<path d="M623.436 57.6244L614.517 78.5124H632.567L623.436 57.6244ZM611.571 84.8882L606.229 96.3634H598.154L619.574 49.2692H627.23L648.65 96.3634H640.642L635.445 84.8882H611.571Z" fill="#4C78BB"/>
<path d="M652.319 90.981L656.465 85.8085C661.242 89.0693 667.558 90.6947 673.883 90.6947C680.975 90.6947 686.172 88.1473 686.172 83.3342C686.172 78.3023 680.271 77.3126 674.51 76.3906L673.179 76.1823C657.94 73.7028 654.006 70.02 654.006 63.0816C654.006 51.674 665.172 48.4183 674.65 48.4183C681.187 48.4183 688.139 50.7572 693.476 53.7992L689.118 58.8259C684.2 56.1433 679.64 54.9296 674.51 54.9296C665.948 54.9296 661.454 57.8414 661.454 62.6545C661.454 66.5508 664.54 68.3167 674.51 69.7335C681.259 70.7962 693.683 72.4995 693.683 83.1935C693.683 91.5435 686.032 97.2108 673.811 97.2108C665.032 97.2108 656.465 93.8146 652.319 90.981Z" fill="#4C78BB"/>
<path d="M722.561 55.7115V96.3625H715.257V55.7115H698.123V49.2681H739.768V55.7115H722.561Z" fill="#4C78BB"/>
<path d="M327.806 146.127C332.719 146.127 335.415 143.898 335.415 140.517C335.415 137.131 332.719 135.157 327.806 135.157H312.181V146.127H327.806ZM312.098 179.788H301.054V124.926H327.806C339.589 124.926 346.707 131.36 346.707 140.6C346.707 149.679 339.589 156.441 327.806 156.441H312.181L312.098 179.788Z" fill="#4C78BB"/>
<path d="M368.063 146.127H383.689C388.601 146.127 391.298 143.898 391.298 140.517C391.298 137.131 388.601 135.157 383.689 135.157H368.063V146.127ZM405.699 179.704H391.462L374.36 156.441H368.063L367.981 179.788H356.937V124.926H383.689C395.471 124.926 402.589 131.36 402.589 140.6C402.589 148.768 397.434 155.04 387.614 156.191L405.699 179.704Z" fill="#4C78BB"/>
<path d="M414.041 124.844H425.167V179.705H414.041V124.844Z" fill="#4C78BB"/>
<path d="M490.538 179.707V144.973L475.651 174.258H465.666L450.779 144.973V179.707H439.648V124.845H453.068L470.656 159.74L488.332 124.845H501.665V179.707H490.538Z" fill="#4C78BB"/>
<path d="M540.369 139.692L533.007 156.934H547.894L540.369 139.692ZM528.34 167.164L522.449 179.707H510.097L535.051 124.841H545.522L570.476 179.707H558.12L552.393 167.164H528.34Z" fill="#4C78BB"/>
<path d="M590.031 146.127H605.656C610.568 146.127 613.263 143.898 613.263 140.517C613.263 137.131 610.568 135.157 605.656 135.157H590.031V146.127ZM627.664 179.704H613.427L596.327 156.441H590.031L589.949 179.788H578.904V124.926H605.656C617.438 124.926 624.554 131.36 624.554 140.6C624.554 148.768 619.4 155.04 609.58 156.191L627.664 179.704Z" fill="#4C78BB"/>
<path d="M664.728 179.707H653.601V157.594L629.303 124.845H643.289L659.164 147.114L675.035 124.845H688.944L664.728 157.594V179.707Z" fill="#4C78BB"/>
<path d="M710.137 152.231C710.137 135.485 723.058 123.853 740.896 123.853C753.985 123.853 765.194 131.692 770.516 143.897L758.324 143.98C754.804 137.959 748.421 134.323 740.896 134.323C729.446 134.323 721.51 141.672 721.51 152.231C721.51 155.612 722.325 158.503 723.632 161.144C726.91 166.259 733.288 169.806 739.999 170.218H741.228C747.689 169.89 754.968 166.837 758.242 160.566L770.757 160.644C770.757 160.644 767.98 166.343 767.812 166.587C761.351 176.161 753.088 180.282 741.551 180.699H740.158C722.817 180.448 710.137 168.817 710.137 152.231Z" fill="#4C78BB"/>
<path d="M802.914 139.692L795.552 156.934H810.439L802.914 139.692ZM790.89 167.164L784.994 179.707H772.642L797.601 124.841H808.067L833.021 179.707H820.67L814.937 167.164H790.89Z" fill="#4C78BB"/>
<path d="M852.575 146.127H868.2C873.113 146.127 875.808 143.898 875.808 140.517C875.808 137.131 873.113 135.157 868.2 135.157H852.575V146.127ZM890.209 179.704H875.972L858.872 156.441H852.575L852.494 179.788H841.448V124.926H868.2C879.983 124.926 887.099 131.36 887.099 140.6C887.099 148.768 881.945 155.04 872.125 156.191L890.209 179.704Z" fill="#4C78BB"/>
<path d="M941.673 179.707H898.559V124.845H941.1V135.154H909.681V146.869H936.684V157.099H909.681V169.398H941.673V179.707Z" fill="#4C78BB"/>
<path d="M327.806 229.471C332.719 229.471 335.415 227.241 335.415 223.861C335.415 220.475 332.719 218.501 327.806 218.501H312.181V229.471H327.806ZM312.098 263.132H301.054V208.27H327.806C339.589 208.27 346.707 214.704 346.707 223.944C346.707 233.023 339.589 239.785 327.806 239.785H312.181L312.098 263.132Z" fill="#4C78BB"/>
<path d="M375.997 223.035L368.636 240.277H383.523L375.997 223.035ZM363.971 250.507L358.077 263.05H345.727L370.681 208.184H381.152L406.106 263.05H393.75L388.027 250.507H363.971Z" fill="#4C78BB"/>
<path d="M425.662 229.471H441.287C446.199 229.471 448.896 227.241 448.896 223.861C448.896 220.475 446.199 218.501 441.287 218.501H425.662V229.471ZM463.297 263.048H449.061L431.958 239.785H425.662L425.579 263.132H414.535V208.27H441.287C453.07 208.27 460.188 214.704 460.188 223.944C460.188 232.112 455.033 238.383 445.213 239.535L463.297 263.048Z" fill="#4C78BB"/>
<path d="M495.289 218.498V263.05H484.08V218.498H465.262V208.189H514.107V218.498H495.289Z" fill="#4C78BB"/>
<path d="M570.804 263.049H561.557L533.576 227.821V263.049H522.449V208.188H531.86L559.677 243.328V208.188H570.804V263.049Z" fill="#4C78BB"/>
<path d="M628.401 263.049H585.287V208.188H627.828V218.496H596.409V230.211H623.412V240.442H596.409V252.741H628.401V263.049Z" fill="#4C78BB"/>
<path d="M650.164 229.471H665.789C670.701 229.471 673.401 227.241 673.401 223.861C673.401 220.475 670.701 218.501 665.789 218.501H650.164V229.471ZM687.802 263.048H673.565L656.46 239.785H650.164L650.082 263.132H639.037V208.27H665.789C677.571 208.27 684.692 214.704 684.692 223.944C684.692 232.112 679.538 238.383 669.718 239.535L687.802 263.048Z" fill="#4C78BB"/>
<path d="M691.967 255.871L698.596 247.703C704.323 251.662 711.362 253.563 717.904 253.563C724.856 253.563 729.764 251.334 729.764 247.208C729.764 243.083 723.959 242.01 718.478 241.104L717.581 241.015C717.412 241.015 717.33 240.937 717.248 240.937C717.166 240.937 717.007 240.937 716.839 240.854C700.153 237.962 694.589 233.347 694.589 224.935C694.589 211.157 707.679 207.193 718.806 207.193C726.249 207.193 734.922 210.412 741.956 214.293L735.004 222.372C729.113 219.075 723.959 217.668 718.642 217.668C710.296 217.668 705.957 220.231 705.957 224.435C705.957 227.654 708.985 229.227 718.888 230.623C726.736 231.863 741.305 233.842 741.305 247.042C741.305 257.106 732.218 264.039 717.822 264.039C707.92 264.039 697.284 259.585 691.967 255.871Z" fill="#4C78BB"/>
<path d="M238.422 238.836L227.942 228.267L196.814 196.877L191.189 191.205L166.276 166.082C168.249 163.295 169.437 159.909 169.437 156.226C169.437 152.549 168.249 149.158 166.276 146.371L189.112 123.347L218.086 191.205L218.153 191.366L230.684 220.714L231.971 223.735L233.158 226.516L238.422 238.836ZM222.223 237.539L219.47 236.341L217.327 235.414L119.91 193.122L142.752 170.093C145.516 172.088 148.879 173.281 152.525 173.281C156.177 173.281 159.535 172.088 162.299 170.098L221.903 230.199L223.964 232.278L225.405 233.731L234.44 242.847L222.223 237.539ZM192.837 249.572V230.955L211.304 238.971C205.559 243.128 199.382 246.68 192.837 249.572ZM73.2714 88.4992L72.8788 87.5617L72.0937 85.7124L67.2226 74.2162L77.1094 84.1914L111.48 118.852L113.815 121.201L138.775 146.371C136.801 149.158 135.614 152.549 135.614 156.226C135.614 159.904 136.801 163.29 138.775 166.082L115.918 189.132L73.2714 88.4992ZM112.307 249.67C88.9178 239.393 70.1153 220.453 59.9032 196.877H112.307V249.67ZM70.6422 96.7139L78.6177 115.529H59.9807C62.8836 108.856 66.453 102.553 70.6422 96.7139ZM85.3584 76.3102L185.161 119.316L162.299 142.36C159.535 140.375 156.177 139.172 152.525 139.172C148.879 139.172 145.516 140.375 142.752 142.36L117.927 117.331L114.301 113.674L83.1478 82.2537L81.0868 80.1805L79.1756 78.2532L71.2001 70.2105L85.3584 76.3102ZM112.307 62.8502V81.7536L93.5099 73.6536C99.3414 69.4031 105.633 65.7829 112.307 62.8502ZM192.837 62.8241C216.164 73.1067 234.92 92.01 245.127 115.529H192.837V62.8241ZM234.574 215.499L226.629 196.877H245.086C242.224 203.483 238.701 209.713 234.574 215.499ZM259.187 156.226C259.187 96.9221 211.334 48.6661 152.525 48.6661C128.077 48.6661 105.597 57.0942 87.5901 71.1012L53.5806 56.4484L68.1111 90.739C54.2211 108.903 45.8634 131.573 45.8634 156.226C45.8634 215.531 93.7114 263.787 152.525 263.787C176.865 263.787 199.252 255.442 217.223 241.544L252.173 256.718L237.126 221.469C250.907 203.352 259.187 180.771 259.187 156.226Z" fill="#4C78BB"/>
</svg>
