<svg width="300" height="300" viewBox="0 0 300 300" fill="none" xmlns="http://www.w3.org/2000/svg">
<g clip-path="url(#clip0_113_71)">
<path d="M264 0H36C16.1177 0 0 16.1177 0 36V264C0 283.882 16.1177 300 36 300H264C283.882 300 300 283.882 300 264V36C300 16.1177 283.882 0 264 0Z" fill="#5955F4"/>
<mask id="mask0_113_71" style="mask-type:luminance" maskUnits="userSpaceOnUse" x="36" y="91" width="215" height="131">
<path d="M36 91.27H251V221.011H36V91.27Z" fill="white"/>
</mask>
<g mask="url(#mask0_113_71)">
<g opacity="0.57">
<path d="M251 155.984C251 120.243 221.941 91.27 186.094 91.27H100.906C65.0594 91.27 36 120.243 36 155.984V220.698H186.094C221.941 220.698 251 191.725 251 155.984Z" fill="#EEF1FF"/>
<path d="M100.906 115.54H186.094C208.498 115.54 226.66 133.648 226.66 155.986C226.66 178.323 208.498 196.432 186.094 196.432H100.906C78.5023 196.432 60.3399 178.323 60.3399 155.986C60.3399 133.648 78.5023 115.54 100.906 115.54Z" fill="#A3AFFE"/>
<path d="M186.094 176.205C174.892 176.205 165.811 167.151 165.811 155.982C165.811 144.813 174.892 135.759 186.094 135.759C197.296 135.759 206.377 144.813 206.377 155.982C206.377 167.151 197.296 176.205 186.094 176.205Z" fill="black"/>
<path d="M194.208 151.937C191.967 151.937 190.151 150.127 190.151 147.893C190.151 145.659 191.967 143.848 194.208 143.848C196.448 143.848 198.264 145.659 198.264 147.893C198.264 150.127 196.448 151.937 194.208 151.937Z" fill="#EEF1FF"/>
<path d="M96.8486 176.205C85.6471 176.205 76.5663 167.151 76.5663 155.982C76.5663 144.813 85.6471 135.759 96.8486 135.759C108.051 135.759 117.132 144.813 117.132 155.982C117.132 167.151 108.051 176.205 96.8486 176.205Z" fill="black"/>
<path d="M104.962 151.937C102.722 151.937 100.906 150.127 100.906 147.893C100.906 145.659 102.722 143.848 104.962 143.848C107.203 143.848 109.019 145.659 109.019 147.893C109.019 150.127 107.203 151.937 104.962 151.937Z" fill="#EEF1FF"/>
</g>
</g>
<mask id="mask1_113_71" style="mask-type:luminance" maskUnits="userSpaceOnUse" x="49" y="78" width="216" height="130">
<path d="M49.2699 78H264.27V207.741H49.2699V78Z" fill="white"/>
</mask>
<g mask="url(#mask1_113_71)">
<path d="M264.27 142.714C264.27 106.973 235.211 78 199.364 78H114.176C78.3293 78 49.2699 106.973 49.2699 142.714V207.428H199.364C235.211 207.428 264.27 178.455 264.27 142.714Z" fill="#EEF1FF"/>
<path d="M114.176 102.269H199.364C221.768 102.269 239.93 120.378 239.93 142.716C239.93 165.053 221.768 183.162 199.364 183.162H114.176C91.7722 183.162 73.6098 165.053 73.6098 142.716C73.6098 120.378 91.7722 102.269 114.176 102.269Z" fill="#A3AFFE"/>
<path d="M199.364 162.935C188.162 162.935 179.081 153.881 179.081 142.712C179.081 131.543 188.162 122.489 199.364 122.489C210.566 122.489 219.647 131.543 219.647 142.712C219.647 153.881 210.566 162.935 199.364 162.935Z" fill="black"/>
<path d="M207.478 138.668C205.237 138.668 203.421 136.858 203.421 134.624C203.421 132.39 205.237 130.579 207.478 130.579C209.718 130.579 211.534 132.39 211.534 134.624C211.534 136.858 209.718 138.668 207.478 138.668Z" fill="#EEF1FF"/>
<path d="M110.118 162.935C98.917 162.935 89.8362 153.881 89.8362 142.712C89.8362 131.543 98.917 122.489 110.118 122.489C121.321 122.489 130.402 131.543 130.402 142.712C130.402 153.881 121.321 162.935 110.118 162.935Z" fill="black"/>
<path d="M118.232 138.668C115.992 138.668 114.176 136.858 114.176 134.624C114.176 132.39 115.992 130.579 118.232 130.579C120.473 130.579 122.289 132.39 122.289 134.624C122.289 136.858 120.473 138.668 118.232 138.668Z" fill="#EEF1FF"/>
</g>
</g>
<defs>
<clipPath id="clip0_113_71">
<rect width="300" height="300" rx="60" fill="white"/>
</clipPath>
</defs>
</svg>
