<svg width="250" height="151" viewBox="0 0 250 151" fill="none" xmlns="http://www.w3.org/2000/svg">
<path d="M0 75.3176C0 33.7208 33.7898 0 75.4717 0H174.528C216.21 0 250 33.7208 250 75.3176V150.635H75.4717C33.7898 150.635 0 116.915 0 75.3176Z" fill="#4845D2"/>
<path d="M174.528 28.2441H75.4718C49.4209 28.2441 28.302 49.3199 28.302 75.3177C28.302 101.315 49.4209 122.391 75.4718 122.391H174.528C200.579 122.391 221.698 101.315 221.698 75.3177C221.698 49.3199 200.579 28.2441 174.528 28.2441Z" fill="#A5B4FC"/>
<path d="M75.4716 98.8543C88.4971 98.8543 99.0565 88.3164 99.0565 75.3175C99.0565 62.3186 88.4971 51.7808 75.4716 51.7808C62.4462 51.7808 51.8867 62.3186 51.8867 75.3175C51.8867 88.3164 62.4462 98.8543 75.4716 98.8543Z" fill="black"/>
<path d="M66.0378 70.6103C68.643 70.6103 70.7548 68.5028 70.7548 65.9029C70.7548 63.303 68.643 61.1956 66.0378 61.1956C63.4326 61.1956 61.3208 63.303 61.3208 65.9029C61.3208 68.5028 63.4326 70.6103 66.0378 70.6103Z" fill="white"/>
<path d="M179.246 98.8543C192.271 98.8543 202.83 88.3164 202.83 75.3175C202.83 62.3186 192.271 51.7808 179.246 51.7808C166.22 51.7808 155.661 62.3186 155.661 75.3175C155.661 88.3164 166.22 98.8543 179.246 98.8543Z" fill="black"/>
<path d="M169.811 70.6103C172.416 70.6103 174.528 68.5028 174.528 65.9029C174.528 63.303 172.416 61.1956 169.811 61.1956C167.206 61.1956 165.094 63.303 165.094 65.9029C165.094 68.5028 167.206 70.6103 169.811 70.6103Z" fill="white"/>
</svg>
