<svg width="388" height="243" viewBox="0 0 388 243" fill="none" xmlns="http://www.w3.org/2000/svg">
<mask id="mask0_131_425" style="mask-type:luminance" maskUnits="userSpaceOnUse" x="0" y="21" width="367" height="222">
<path d="M3.05176e-05 21.3066H366.933V242.731H3.05176e-05V21.3066Z" fill="white"/>
</mask>
<g mask="url(#mask0_131_425)">
<g opacity="0.57">
<path d="M366.933 131.752C366.933 70.7539 317.339 21.3066 256.16 21.3066H110.773C49.5947 21.3066 0 70.7539 0 131.752V242.197H256.16C317.339 242.197 366.933 192.75 366.933 131.752Z" fill="#5955F4"/>
<path d="M110.773 62.7241H256.16C294.397 62.7241 325.393 93.6285 325.393 131.752C325.393 169.874 294.397 200.78 256.16 200.78H110.773C72.5371 200.78 41.5399 169.874 41.5399 131.752C41.5399 93.6285 72.5371 62.7241 110.773 62.7241Z" fill="#A3AFFE"/>
<path d="M256.16 166.266C237.042 166.266 221.544 150.813 221.544 131.752C221.544 112.69 237.042 97.2378 256.16 97.2378C275.279 97.2378 290.777 112.69 290.777 131.752C290.777 150.813 275.279 166.266 256.16 166.266Z" fill="black"/>
<path d="M270.008 124.848C266.184 124.848 263.084 121.759 263.084 117.946C263.084 114.134 266.184 111.043 270.008 111.043C273.831 111.043 276.931 114.134 276.931 117.946C276.931 121.759 273.831 124.848 270.008 124.848Z" fill="#5955F4"/>
<path d="M103.848 166.266C84.7309 166.266 69.233 150.813 69.233 131.752C69.233 112.69 84.7309 97.2378 103.848 97.2378C122.967 97.2378 138.465 112.69 138.465 131.752C138.465 150.813 122.967 166.266 103.848 166.266Z" fill="black"/>
<path d="M117.695 124.848C113.872 124.848 110.773 121.759 110.773 117.946C110.773 114.134 113.872 111.043 117.695 111.043C121.52 111.043 124.619 114.134 124.619 117.946C124.619 121.759 121.52 124.848 117.695 124.848Z" fill="#5955F4"/>
</g>
</g>
<mask id="mask1_131_425" style="mask-type:luminance" maskUnits="userSpaceOnUse" x="20" y="0" width="368" height="223">
<path d="M20.48 0.82666H387.413V222.251H20.48V0.82666Z" fill="white"/>
</mask>
<g mask="url(#mask1_131_425)">
<path d="M387.413 111.272C387.413 50.2739 337.819 0.82666 276.64 0.82666H131.253C70.0747 0.82666 20.48 50.2739 20.48 111.272V221.717H276.64C337.819 221.717 387.413 172.27 387.413 111.272Z" fill="#5955F4"/>
<path d="M131.253 42.2441H276.64C314.877 42.2441 345.873 73.1485 345.873 111.272C345.873 149.394 314.877 180.3 276.64 180.3H131.253C93.0171 180.3 62.0199 149.394 62.0199 111.272C62.0199 73.1485 93.0171 42.2441 131.253 42.2441Z" fill="#A3AFFE"/>
<path d="M276.64 145.786C257.522 145.786 242.024 130.334 242.024 111.272C242.024 92.21 257.522 76.7578 276.64 76.7578C295.758 76.7578 311.257 92.21 311.257 111.272C311.257 130.334 295.758 145.786 276.64 145.786Z" fill="black"/>
<path d="M290.488 104.368C286.664 104.368 283.564 101.279 283.564 97.4665C283.564 93.6538 286.664 90.563 290.488 90.563C294.311 90.563 297.411 93.6538 297.411 97.4665C297.411 101.279 294.311 104.368 290.488 104.368Z" fill="white"/>
<path d="M124.327 145.786C105.211 145.786 89.713 130.334 89.713 111.272C89.713 92.21 105.211 76.7578 124.327 76.7578C143.447 76.7578 158.945 92.21 158.945 111.272C158.945 130.334 143.447 145.786 124.327 145.786Z" fill="black"/>
<path d="M138.175 104.368C134.352 104.368 131.253 101.279 131.253 97.4665C131.253 93.6538 134.352 90.563 138.175 90.563C142 90.563 145.099 93.6538 145.099 97.4665C145.099 101.279 142 104.368 138.175 104.368Z" fill="white"/>
</g>
</svg>
